<svg width="24" height="24" viewBox="0 0 24 24" fill="none" xmlns="http://www.w3.org/2000/svg">
<path fill-rule="evenodd" clip-rule="evenodd" d="M12 5C12.5523 5 13 5.44772 13 6V18C13 18.5523 12.5523 19 12 19C11.4477 19 11 18.5523 11 18V6C11 5.44772 11.4477 5 12 5Z" fill="black"/>
<path fill-rule="evenodd" clip-rule="evenodd" d="M18.0619 8.50016C18.338 8.97845 18.1742 9.59004 17.6959 9.86619L7.30389 15.8662C6.8256 16.1423 6.21401 15.9785 5.93786 15.5002C5.66171 15.0219 5.82558 14.4103 6.30387 14.1341L16.6959 8.13415C17.1742 7.858 17.7857 8.02187 18.0619 8.50016Z" fill="black"/>
<path fill-rule="evenodd" clip-rule="evenodd" d="M5.93786 8.50016C6.21401 8.02187 6.8256 7.858 7.30389 8.13415L17.6959 14.1341C18.1742 14.4103 18.338 15.0219 18.0619 15.5002C17.7857 15.9785 17.1742 16.1423 16.6959 15.8662L6.30387 9.86619C5.82558 9.59004 5.66171 8.97845 5.93786 8.50016Z" fill="black"/>
</svg>
