<svg width="24" height="24" viewBox="0 0 24 24" fill="none" xmlns="http://www.w3.org/2000/svg">
<path d="M12 1C5.92487 1 1 5.92487 1 12H3C3 9.87498 3.73648 7.92197 4.96811 6.3823L17.6177 19.0319C16.078 20.2635 14.125 21 12 21V23C18.0751 23 23 18.0751 23 12H21C21 14.125 20.2635 16.078 19.0319 17.6177L6.38233 4.96809C7.922 3.73647 9.87499 3 12 3V1Z" fill="black"/>
<path d="M21 12C21 7.02944 16.9706 3 12 3V1C18.0751 1 23 5.92487 23 12H21Z" fill="black"/>
<path d="M3 12C3 16.9706 7.02944 21 12 21V23C5.92487 23 1 18.0751 1 12H3Z" fill="black"/>
</svg>
