<svg width="24" height="24" viewBox="0 0 24 24" fill="none" xmlns="http://www.w3.org/2000/svg">
<path fill-rule="evenodd" clip-rule="evenodd" d="M12 3C10.4087 3 8.88258 3.63214 7.75736 4.75736C6.63214 5.88258 6 7.4087 6 9V14C6 14.7082 5.81218 15.3971 5.46411 16H12C12.5523 16 13 16.4477 13 17C13 17.5523 12.5523 18 12 18H2C1.44772 18 1 17.5523 1 17C1 16.4477 1.44772 16 2 16C2.53043 16 3.03914 15.7893 3.41421 15.4142C3.78929 15.0391 4 14.5304 4 14V9C4 6.87827 4.84285 4.84344 6.34315 3.34315C7.84344 1.84285 9.87827 1 12 1C12.5523 1 13 1.44772 13 2C13 2.55228 12.5523 3 12 3Z" fill="black"/>
<path fill-rule="evenodd" clip-rule="evenodd" d="M11 2C11 1.44772 11.4477 1 12 1C14.1217 1 16.1566 1.84285 17.6569 3.34315C19.1571 4.84344 20 6.87827 20 9V14C20 14.5304 20.2107 15.0391 20.5858 15.4142C20.9609 15.7893 21.4696 16 22 16C22.5523 16 23 16.4477 23 17C23 17.5523 22.5523 18 22 18H12C11.4477 18 11 17.5523 11 17C11 16.4477 11.4477 16 12 16H18.5359C18.1878 15.3971 18 14.7082 18 14V9C18 7.4087 17.3679 5.88258 16.2426 4.75736C15.1174 3.63214 13.5913 3 12 3C11.4477 3 11 2.55228 11 2Z" fill="black"/>
<path fill-rule="evenodd" clip-rule="evenodd" d="M9.76823 20.135C10.246 19.8579 10.8579 20.0205 11.135 20.4982C11.2229 20.6497 11.3491 20.7755 11.5009 20.863C11.6527 20.9504 11.8248 20.9964 12 20.9964C12.1752 20.9964 12.3473 20.9504 12.4991 20.863C12.6509 20.7755 12.7771 20.6497 12.865 20.4982C13.1421 20.0205 13.754 19.8579 14.2318 20.135C14.7095 20.4121 14.8721 21.024 14.595 21.5018C14.3313 21.9564 13.9528 22.3337 13.4973 22.596C13.0419 22.8584 12.5256 22.9964 12 22.9964C11.4744 22.9964 10.9581 22.8584 10.5027 22.596C10.0472 22.3337 9.66872 21.9564 9.405 21.5018C9.12788 21.024 9.2905 20.4121 9.76823 20.135Z" fill="black"/>
</svg>
