<svg width="24" height="24" viewBox="0 0 24 24" fill="none" xmlns="http://www.w3.org/2000/svg">
<path fill-rule="evenodd" clip-rule="evenodd" d="M6.66858 6.23877C6.22807 7.09201 5.99879 8.03852 6 8.99877L4.00001 9.00129C3.99839 7.72096 4.3041 6.45895 4.89144 5.32129L6.66858 6.23877Z" fill="black"/>
<path fill-rule="evenodd" clip-rule="evenodd" d="M6 9V14C6 14.7082 5.81218 15.3971 5.46411 16H17V18H2C1.44772 18 1 17.5523 1 17C1 16.4477 1.44772 16 2 16C2.53043 16 3.03914 15.7893 3.41421 15.4142C3.78929 15.0391 4 14.5304 4 14V9H6Z" fill="black"/>
<path fill-rule="evenodd" clip-rule="evenodd" d="M9.76823 20.135C10.246 19.8579 10.8579 20.0205 11.135 20.4982C11.2229 20.6497 11.3491 20.7755 11.5009 20.863C11.6527 20.9504 11.8248 20.9964 12 20.9964C12.1752 20.9964 12.3473 20.9504 12.4991 20.863C12.6509 20.7755 12.7771 20.6497 12.865 20.4982C13.1421 20.0205 13.754 19.8579 14.2318 20.135C14.7095 20.4121 14.8721 21.024 14.595 21.5018C14.3313 21.9564 13.9528 22.3337 13.4973 22.596C13.0419 22.8584 12.5256 22.9964 12 22.9964C11.4744 22.9964 10.9581 22.8584 10.5027 22.596C10.0472 22.3337 9.66872 21.9564 9.405 21.5018C9.12788 21.024 9.2905 20.4121 9.76823 20.135Z" fill="black"/>
<path fill-rule="evenodd" clip-rule="evenodd" d="M12.0452 2.99657C10.9967 2.98867 9.96454 3.25565 9.05142 3.77089C8.57042 4.0423 7.96048 3.8724 7.68907 3.3914C7.41766 2.91041 7.58757 2.30047 8.06856 2.02906C9.28606 1.34207 10.6623 0.9861 12.0602 0.996626C13.4581 1.00715 14.8289 1.3838 16.0359 2.08905C17.2429 2.7943 18.244 3.80352 18.9396 5.01616C19.6351 6.22881 20.0007 7.60254 20 9.00048V13C20 13.5523 19.5523 14 19 14C18.4477 14 18 13.5523 18 13V8.99997C18.0005 7.95151 17.7263 6.92071 17.2047 6.01122C16.683 5.10174 15.9322 4.34482 15.0269 3.81589C14.1217 3.28695 13.0936 3.00446 12.0452 2.99657Z" fill="black"/>
<path fill-rule="evenodd" clip-rule="evenodd" d="M0.292893 0.292893C0.683417 -0.0976311 1.31658 -0.0976311 1.70711 0.292893L23.7071 22.2929C24.0976 22.6834 24.0976 23.3166 23.7071 23.7071C23.3166 24.0976 22.6834 24.0976 22.2929 23.7071L0.292893 1.70711C-0.0976311 1.31658 -0.0976311 0.683417 0.292893 0.292893Z" fill="black"/>
</svg>
