<svg width="24" height="24" viewBox="0 0 24 24" fill="none" xmlns="http://www.w3.org/2000/svg">
<path fill-rule="evenodd" clip-rule="evenodd" d="M0 5C0 3.34315 1.34315 2 3 2H21C22.6569 2 24 3.34315 24 5V19C24 20.6569 22.6569 22 21 22H3C1.34314 22 0 20.6569 0 19V5ZM3 4C2.44772 4 2 4.44772 2 5V19C2 19.5523 2.44772 20 3 20H21C21.5523 20 22 19.5523 22 19V5C22 4.44771 21.5523 4 21 4H3Z" fill="black"/>
<path fill-rule="evenodd" clip-rule="evenodd" d="M12.7071 18.7071C12.3166 19.0976 11.6834 19.0976 11.2929 18.7071L8.29289 15.7071C7.90237 15.3166 7.90237 14.6834 8.29289 14.2929C8.68342 13.9024 9.31658 13.9024 9.70711 14.2929L11 15.5858L11 11C11 10.4477 11.4477 10 12 10C12.5523 10 13 10.4477 13 11L13 15.5858L14.2929 14.2929C14.6834 13.9024 15.3166 13.9024 15.7071 14.2929C16.0976 14.6834 16.0976 15.3166 15.7071 15.7071L12.7071 18.7071Z" fill="black"/>
</svg>
