<svg width="24" height="24" viewBox="0 0 24 24" fill="none" xmlns="http://www.w3.org/2000/svg">
<path fill-rule="evenodd" clip-rule="evenodd" d="M0 5C0 3.34315 1.34315 2 3 2H21C22.6569 2 24 3.34315 24 5V7C24 8.65685 22.6569 10 21 10H3C1.34314 10 0 8.65685 0 7V5ZM3 4C2.44772 4 2 4.44772 2 5V7C2 7.55229 2.44772 8 3 8H21C21.5523 8 22 7.55228 22 7V5C22 4.44771 21.5523 4 21 4H3Z" fill="black"/>
<path fill-rule="evenodd" clip-rule="evenodd" d="M11.2929 12.2929C11.6834 11.9024 12.3166 11.9024 12.7071 12.2929L15.7071 15.2929C16.0976 15.6834 16.0976 16.3166 15.7071 16.7071C15.3166 17.0976 14.6834 17.0976 14.2929 16.7071L13 15.4142V21C13 21.5523 12.5523 22 12 22C11.4477 22 11 21.5523 11 21V15.4142L9.70711 16.7071C9.31658 17.0976 8.68342 17.0976 8.29289 16.7071C7.90237 16.3166 7.90237 15.6834 8.29289 15.2929L11.2929 12.2929Z" fill="black"/>
</svg>
