<svg width="24" height="24" viewBox="0 0 24 24" fill="none" xmlns="http://www.w3.org/2000/svg">
<path fill-rule="evenodd" clip-rule="evenodd" d="M8 1C8.55228 1 9 1.44772 9 2V3H15V2C15 1.44772 15.4477 1 16 1C16.5523 1 17 1.44772 17 2V3H19C19.7957 3 20.5587 3.31607 21.1213 3.87868C21.6839 4.44129 22 5.20435 22 6C22 6.55228 21.5523 7 21 7C20.4477 7 20 6.55228 20 6C20 5.73478 19.8946 5.48043 19.7071 5.29289C19.5196 5.10536 19.2652 5 19 5H17V6C17 6.55228 16.5523 7 16 7C15.4477 7 15 6.55228 15 6V5H9V6C9 6.55228 8.55228 7 8 7C7.44772 7 7 6.55228 7 6V5H5C4.73478 5 4.48043 5.10536 4.29289 5.29289C4.10536 5.48043 4 5.73478 4 6C4 6.55228 3.55228 7 3 7C2.44772 7 2 6.55228 2 6C2 5.20435 2.31607 4.44129 2.87868 3.87868C3.44129 3.31607 4.20435 3 5 3H7V2C7 1.44772 7.44772 1 8 1ZM3 8C3.55228 8 4 8.44772 4 9H5C5.55228 9 6 9.44772 6 10C6 10.5523 5.55228 11 5 11H4C4 11.5523 3.55228 12 3 12C2.44772 12 2 11.5523 2 11V9C2 8.44772 2.44772 8 3 8ZM21 8C21.5523 8 22 8.44772 22 9V11C22 11.5523 21.5523 12 21 12C20.4477 12 20 11.5523 20 11H19C18.4477 11 18 10.5523 18 10C18 9.44772 18.4477 9 19 9H20C20 8.44772 20.4477 8 21 8ZM8 10C8 9.44772 8.44772 9 9 9H10C10.5523 9 11 9.44772 11 10C11 10.5523 10.5523 11 10 11H9C8.44772 11 8 10.5523 8 10ZM13 10C13 9.44772 13.4477 9 14 9H15C15.5523 9 16 9.44772 16 10C16 10.5523 15.5523 11 15 11H14C13.4477 11 13 10.5523 13 10ZM3 14C3.55228 14 4 14.4477 4 15V16C4 16.5523 3.55228 17 3 17C2.44772 17 2 16.5523 2 16V15C2 14.4477 2.44772 14 3 14ZM21 14C21.5523 14 22 14.4477 22 15V16C22 16.5523 21.5523 17 21 17C20.4477 17 20 16.5523 20 16V15C20 14.4477 20.4477 14 21 14ZM3 19C3.55228 19 4 19.4477 4 20C4 20.2652 4.10536 20.5196 4.29289 20.7071C4.48043 20.8946 4.73478 21 5 21C5.55228 21 6 21.4477 6 22C6 22.5523 5.55228 23 5 23C4.20435 23 3.44129 22.6839 2.87868 22.1213C2.31607 21.5587 2 20.7957 2 20C2 19.4477 2.44772 19 3 19ZM21 19C21.5523 19 22 19.4477 22 20C22 20.7957 21.6839 21.5587 21.1213 22.1213C20.5587 22.6839 19.7957 23 19 23C18.4477 23 18 22.5523 18 22C18 21.4477 18.4477 21 19 21C19.2652 21 19.5196 20.8946 19.7071 20.7071C19.8946 20.5196 20 20.2652 20 20C20 19.4477 20.4477 19 21 19ZM8 22C8 21.4477 8.44772 21 9 21H10C10.5523 21 11 21.4477 11 22C11 22.5523 10.5523 23 10 23H9C8.44772 23 8 22.5523 8 22ZM13 22C13 21.4477 13.4477 21 14 21H15C15.5523 21 16 21.4477 16 22C16 22.5523 15.5523 23 15 23H14C13.4477 23 13 22.5523 13 22Z" fill="black"/>
</svg>
