<svg width="24" height="24" viewBox="0 0 24 24" fill="none" xmlns="http://www.w3.org/2000/svg">
<path fill-rule="evenodd" clip-rule="evenodd" d="M8 0C8.55228 0 9 0.447715 9 1V2H15V1C15 0.447715 15.4477 0 16 0C16.5523 0 17 0.447715 17 1V2H19C19.7957 2 20.5587 2.31607 21.1213 2.87868C21.6839 3.44129 22 4.20435 22 5C22 5.55228 21.5523 6 21 6C20.4477 6 20 5.55228 20 5C20 4.73478 19.8946 4.48043 19.7071 4.29289C19.5196 4.10536 19.2652 4 19 4H17V5C17 5.55228 16.5523 6 16 6C15.4477 6 15 5.55228 15 5V4H9V5C9 5.55228 8.55228 6 8 6C7.44772 6 7 5.55228 7 5V4H5C4.73478 4 4.48043 4.10536 4.29289 4.29289C4.10536 4.48043 4 4.73478 4 5C4 5.55228 3.55228 6 3 6C2.44772 6 2 5.55228 2 5C2 4.20435 2.31607 3.44129 2.87868 2.87868C3.44129 2.31607 4.20435 2 5 2H7V1C7 0.447715 7.44772 0 8 0ZM3 7C3.55228 7 4 7.44772 4 8H5C5.55228 8 6 8.44772 6 9C6 9.55229 5.55228 10 5 10H4C4 10.5523 3.55228 11 3 11C2.44772 11 2 10.5523 2 10V8C2 7.44772 2.44772 7 3 7ZM21 7C21.5523 7 22 7.44772 22 8V10C22 10.5523 21.5523 11 21 11C20.4477 11 20 10.5523 20 10H19C18.4477 10 18 9.55229 18 9C18 8.44772 18.4477 8 19 8H20C20 7.44772 20.4477 7 21 7ZM8 9C8 8.44772 8.44772 8 9 8H10C10.5523 8 11 8.44772 11 9C11 9.55229 10.5523 10 10 10H9C8.44772 10 8 9.55229 8 9ZM13 9C13 8.44772 13.4477 8 14 8H15C15.5523 8 16 8.44772 16 9C16 9.55229 15.5523 10 15 10H14C13.4477 10 13 9.55229 13 9ZM3 13C3.55228 13 4 13.4477 4 14V15C4 15.5523 3.55228 16 3 16C2.44772 16 2 15.5523 2 15V14C2 13.4477 2.44772 13 3 13ZM21 13C21.5523 13 22 13.4477 22 14V15C22 15.5523 21.5523 16 21 16C20.4477 16 20 15.5523 20 15V14C20 13.4477 20.4477 13 21 13ZM3 18C3.55228 18 4 18.4477 4 19C4 19.2652 4.10536 19.5196 4.29289 19.7071C4.48043 19.8946 4.73478 20 5 20C5.55228 20 6 20.4477 6 21C6 21.5523 5.55228 22 5 22C4.20435 22 3.44129 21.6839 2.87868 21.1213C2.31607 20.5587 2 19.7957 2 19C2 18.4477 2.44772 18 3 18ZM21 18C21.5523 18 22 18.4477 22 19C22 19.7957 21.6839 20.5587 21.1213 21.1213C20.5587 21.6839 19.7957 22 19 22C18.4477 22 18 21.5523 18 21C18 20.4477 18.4477 20 19 20C19.2652 20 19.5196 19.8946 19.7071 19.7071C19.8946 19.5196 20 19.2652 20 19C20 18.4477 20.4477 18 21 18ZM8 21C8 20.4477 8.44772 20 9 20H10C10.5523 20 11 20.4477 11 21C11 21.5523 10.5523 22 10 22H9C8.44772 22 8 21.5523 8 21ZM13 21C13 20.4477 13.4477 20 14 20H15C15.5523 20 16 20.4477 16 21C16 21.5523 15.5523 22 15 22H14C13.4477 22 13 21.5523 13 21Z" fill="black"/>
</svg>
