<svg width="24" height="24" viewBox="0 0 24 24" fill="none" xmlns="http://www.w3.org/2000/svg">
<path fill-rule="evenodd" clip-rule="evenodd" d="M12 3C7.02944 3 3 7.02944 3 12C3 16.9706 7.02944 21 12 21C16.9706 21 21 16.9706 21 12C21 7.02944 16.9706 3 12 3ZM1 12C1 5.92487 5.92487 1 12 1C18.0751 1 23 5.92487 23 12C23 18.0751 18.0751 23 12 23C5.92487 23 1 18.0751 1 12ZM11 17C11 16.4477 11.4477 16 12 16H12.01C12.5623 16 13.01 16.4477 13.01 17C13.01 17.5523 12.5623 18 12.01 18H12C11.4477 18 11 17.5523 11 17Z" fill="black"/>
<path d="M10.9066 8.27127C11.3138 8.03195 11.7926 7.94447 12.2581 8.02432C12.7236 8.10417 13.1459 8.34619 13.4501 8.70753C13.7542 9.06886 13.9207 9.52619 13.92 9.99851L13.92 10C13.92 10.4691 13.5549 10.9582 12.8653 11.4179C12.5509 11.6275 12.2294 11.789 11.9826 11.8987C11.8606 11.9529 11.7603 11.9929 11.6929 12.0186L11.6032 12.0515C11.0796 12.2263 10.7967 12.7925 10.9713 13.3162C11.146 13.8402 11.7123 14.1233 12.2362 13.9487L12.2887 13.9305C12.3173 13.9203 12.3565 13.9061 12.4049 13.8876C12.5015 13.8508 12.6356 13.7971 12.7949 13.7263C13.1106 13.586 13.5391 13.3725 13.9747 13.0821C14.7849 12.5419 15.9195 11.5313 15.92 10.0009C15.9213 9.05648 15.5883 8.14205 14.9801 7.41953C14.3718 6.69686 13.5273 6.2128 12.5962 6.05311C11.6652 5.89341 10.7077 6.06837 9.89327 6.547C9.07887 7.02563 8.46014 7.77705 8.14667 8.66816C7.96339 9.18915 8.23717 9.76006 8.75816 9.94333C9.27915 10.1266 9.85006 9.85283 10.0333 9.33184C10.1901 8.88629 10.4994 8.51058 10.9066 8.27127Z" fill="black"/>
</svg>
