<svg width="24" height="24" viewBox="0 0 24 24" fill="none" xmlns="http://www.w3.org/2000/svg">
<path fill-rule="evenodd" clip-rule="evenodd" d="M0 11C0 9.34315 1.34315 8 3 8H21C22.6569 8 24 9.34315 24 11V13C24 14.6569 22.6569 16 21 16H3C1.34314 16 0 14.6569 0 13V11ZM3 10C2.44772 10 2 10.4477 2 11V13C2 13.5523 2.44772 14 3 14H21C21.5523 14 22 13.5523 22 13V11C22 10.4477 21.5523 10 21 10H3Z" fill="#0A0908"/>
<path d="M3 12C3 11.4477 3.44772 11 4 11H10C10.5523 11 11 11.4477 11 12C11 12.5523 10.5523 13 10 13H4C3.44772 13 3 12.5523 3 12Z" fill="#0A0908"/>
</svg>
