<svg width="24" height="24" viewBox="0 0 24 24" fill="none" xmlns="http://www.w3.org/2000/svg">
<path d="M7.12996 1.00867C7.13475 0.456403 6.69093 0.00482466 6.13867 3.83509e-05C5.5864 -0.0047479 5.13482 0.43907 5.13004 0.991334L5 15.9913V16C5 16.7956 5.31607 17.5587 5.87868 18.1213C6.44129 18.6839 7.20435 19 8 19H17V17H8C7.73478 17 7.48043 16.8946 7.29289 16.7071C7.1062 16.5204 7.00095 16.2675 7.00001 16.0036L7.12996 1.00867Z" fill="black"/>
<path d="M24 18C24 17.4477 23.5523 17 23 17H19V19H23C23.5523 19 24 18.5523 24 18Z" fill="black"/>
<path d="M3.83509e-05 6.13867C0.00482466 6.69093 0.456403 7.13475 1.00867 7.12996L5.09766 7.09452V5.09446L0.991334 5.13004C0.43907 5.13482 -0.0047479 5.5864 3.83509e-05 6.13867Z" fill="black"/>
<path d="M18.1213 5.87868C17.5587 5.31607 16.7956 5 16 5L7.08213 5.07727V7.07733L16.0036 7.00001C16.2675 7.00095 16.5204 7.1062 16.7071 7.29289C16.8946 7.48043 17 7.73478 17 8V23C17 23.5523 17.4477 24 18 24C18.5523 24 19 23.5523 19 23V8C19 7.20435 18.6839 6.44129 18.1213 5.87868Z" fill="black"/>
</svg>
