<svg width="22" height="22" viewBox="0 0 22 22" fill="none" xmlns="http://www.w3.org/2000/svg">
<path fill-rule="evenodd" clip-rule="evenodd" d="M11 2C6.02944 2 2 6.02944 2 11C2 15.9706 6.02944 20 11 20C15.9706 20 20 15.9706 20 11C20 6.02944 15.9706 2 11 2ZM0 11C0 4.92487 4.92487 0 11 0C17.0751 0 22 4.92487 22 11C22 17.0751 17.0751 22 11 22C4.92487 22 0 17.0751 0 11Z" fill="black"/>
<path fill-rule="evenodd" clip-rule="evenodd" d="M16 11C16 10.4477 16.4477 10 17 10H21C21.5523 10 22 10.4477 22 11C22 11.5523 21.5523 12 21 12H17C16.4477 12 16 11.5523 16 11Z" fill="black"/>
<path fill-rule="evenodd" clip-rule="evenodd" d="M0 11C0 10.4477 0.447715 10 1 10H5C5.55228 10 6 10.4477 6 11C6 11.5523 5.55228 12 5 12H1C0.447715 12 0 11.5523 0 11Z" fill="black"/>
<path fill-rule="evenodd" clip-rule="evenodd" d="M11 0C11.5523 0 12 0.447715 12 1V5C12 5.55228 11.5523 6 11 6C10.4477 6 10 5.55228 10 5V1C10 0.447715 10.4477 0 11 0Z" fill="black"/>
<path fill-rule="evenodd" clip-rule="evenodd" d="M11 16C11.5523 16 12 16.4477 12 17V21C12 21.5523 11.5523 22 11 22C10.4477 22 10 21.5523 10 21V17C10 16.4477 10.4477 16 11 16Z" fill="black"/>
</svg>
