<svg width="24" height="24" viewBox="0 0 24 24" fill="none" xmlns="http://www.w3.org/2000/svg">
<path fill-rule="evenodd" clip-rule="evenodd" d="M12 5C11.6821 5 11.3992 5.14717 11.2144 5.38108C10.8721 5.81444 10.2432 5.8882 9.80986 5.54583C9.3765 5.20346 9.30273 4.57461 9.6451 4.14125C10.1929 3.44791 11.0444 3 12 3C13.6569 3 15 4.34315 15 6C15 6.95547 14.5522 7.80695 13.859 8.35472C13.4256 8.69713 12.7968 8.62343 12.4544 8.1901C12.112 7.75677 12.1857 7.12791 12.619 6.7855C12.8529 6.6007 13 6.31783 13 6C13 5.44772 12.5523 5 12 5ZM3 9C2.44772 9 2 9.44772 2 10C2 10.5523 2.44772 11 3 11C3.55228 11 4 10.5523 4 10C4 9.44772 3.55228 9 3 9ZM0 10C0 8.34315 1.34315 7 3 7C4.65685 7 6 8.34315 6 10C6 10.507 5.87424 10.9846 5.65221 11.4033L8.77579 13.8215L9.56268 10.8317C9.70325 10.2976 10.2502 9.97862 10.7843 10.1192C11.3184 10.2598 11.6374 10.8067 11.4968 11.3408L10.3254 15.7917C10.24 16.1162 9.99754 16.3762 9.67982 16.4841C9.36211 16.592 9.01146 16.5333 8.74615 16.3279L5 13.4277V18.7604C5.00021 18.8967 5.03621 19.0305 5.1044 19.1485C5.12094 19.1771 5.13924 19.2045 5.15914 19.2306C10.2199 18.2999 13.7884 18.3005 18.8512 19.2325C19.236 18.8952 19.8215 18.9015 20.1992 19.2612C20.5992 19.6421 20.6146 20.2751 20.2337 20.675C20.0514 20.8664 19.842 21.0316 19.6111 21.1649C19.4031 21.2849 19.1589 21.3262 18.9231 21.281C13.714 20.2837 10.286 20.2837 5.07692 21.281C4.84107 21.3262 4.59685 21.2849 4.38889 21.1649C3.96703 20.9213 3.61664 20.5711 3.37286 20.1494C3.12909 19.7276 3.0005 19.2492 3 18.7621L3 13C1.34315 13 0 11.6569 0 10ZM21 9C20.4477 9 20 9.44772 20 10C20 10.5523 20.4477 11 21 11C21.5523 11 22 10.5523 22 10C22 9.44772 21.5523 9 21 9ZM18 10C18 8.34315 19.3431 7 21 7C22.6569 7 24 8.34315 24 10C24 11.6569 22.6569 13 21 13V14.3346C21 14.8869 20.5523 15.3346 20 15.3346C19.4477 15.3346 19 14.8869 19 14.3346V13.4336L18.9534 13.4698C18.5174 13.8089 17.8892 13.7304 17.5501 13.2944C17.211 12.8585 17.2895 12.2302 17.7255 11.8911L18.3492 11.406C18.1263 10.9866 18 10.5081 18 10Z" fill="#0A0908"/>
<path fill-rule="evenodd" clip-rule="evenodd" d="M2.79289 2.79289C3.18342 2.40237 3.81658 2.40237 4.20711 2.79289L22.7071 21.2929C23.0976 21.6834 23.0976 22.3166 22.7071 22.7071C22.3166 23.0976 21.6834 23.0976 21.2929 22.7071L2.79289 4.20711C2.40237 3.81658 2.40237 3.18342 2.79289 2.79289Z" fill="#0A0908"/>
</svg>
