<svg width="24" height="24" viewBox="0 0 24 24" fill="none" xmlns="http://www.w3.org/2000/svg">
<path fill-rule="evenodd" clip-rule="evenodd" d="M12 5C11.4477 5 11 5.44772 11 6C11 6.55228 11.4477 7 12 7C12.5523 7 13 6.55228 13 6C13 5.44772 12.5523 5 12 5ZM9 6C9 4.34315 10.3431 3 12 3C13.6569 3 15 4.34315 15 6C15 7.00146 14.5093 7.88832 13.7552 8.43323C13.8308 8.57369 13.8925 8.72865 13.9375 8.89809L15.2452 13.8203L18.3492 11.406C18.1263 10.9866 18 10.5081 18 10C18 8.34315 19.3431 7 21 7C22.6569 7 24 8.34315 24 10C24 11.6569 22.6569 13 21 13V18.7621C20.9995 19.2492 20.8709 19.7276 20.6271 20.1494C20.3834 20.5711 20.033 20.9213 19.6111 21.1649C19.4031 21.2849 19.1589 21.3262 18.9231 21.281C13.714 20.2837 10.286 20.2837 5.07692 21.281C4.84107 21.3262 4.59685 21.2849 4.38889 21.1649C3.96703 20.9213 3.61664 20.5711 3.37286 20.1494C3.12909 19.7276 3.0005 19.2492 3 18.7621L3 13C1.34315 13 0 11.6569 0 10C0 8.34315 1.34315 7 3 7C4.65685 7 6 8.34315 6 10C6 10.507 5.87424 10.9846 5.65221 11.4033L8.77579 13.8215L10.0704 8.90259C10.115 8.73329 10.1762 8.57839 10.2513 8.43792C9.49353 7.89341 9 7.00434 9 6ZM3 9C2.44772 9 2 9.44772 2 10C2 10.5523 2.44772 11 3 11C3.55228 11 4 10.5523 4 10C4 9.44772 3.55228 9 3 9ZM21 9C20.4477 9 20 9.44772 20 10C20 10.5523 20.4477 11 21 11C21.5523 11 22 10.5523 22 10C22 9.44772 21.5523 9 21 9ZM13.7002 15.7939L12.0045 9.41164L10.3254 15.7917C10.24 16.1162 9.99754 16.3762 9.67982 16.4841C9.36211 16.592 9.01146 16.5333 8.74615 16.3279L5 13.4277V18.7604C5.00021 18.8967 5.03621 19.0305 5.1044 19.1485C5.12094 19.1771 5.13924 19.2045 5.15914 19.2306C10.2165 18.3005 13.7835 18.3005 18.8409 19.2306C18.8608 19.2045 18.8791 19.1771 18.8956 19.1485C18.9639 19.0304 18.9999 18.8964 19 18.76V13.4336L15.2806 16.3265C15.0158 16.5325 14.6653 16.592 14.3473 16.4848C14.0294 16.3777 13.7863 16.1182 13.7002 15.7939Z" fill="#0A0908"/>
</svg>
