<svg width="24" height="24" viewBox="0 0 24 24" fill="none" xmlns="http://www.w3.org/2000/svg">
<path fill-rule="evenodd" clip-rule="evenodd" d="M0 5C0 3.34315 1.34315 2 3 2H21C22.6569 2 24 3.34315 24 5V19C24 20.6569 22.6569 22 21 22H3C1.34314 22 0 20.6569 0 19V5ZM3 4C2.44772 4 2 4.44772 2 5V19C2 19.5523 2.44772 20 3 20H21C21.5523 20 22 19.5523 22 19V5C22 4.44771 21.5523 4 21 4H3Z" fill="#0A0908"/>
<path d="M3 6C3 5.44772 3.44772 5 4 5H10C10.5523 5 11 5.44772 11 6C11 6.55228 10.5523 7 10 7H4C3.44772 7 3 6.55228 3 6Z" fill="#0A0908"/>
</svg>
