<svg width="24" height="24" viewBox="0 0 24 24" fill="none" xmlns="http://www.w3.org/2000/svg">
<path d="M1.60608 12.9191C2.11348 13.1366 2.70106 12.9018 2.91885 12.3946L2.92254 12.3863C2.92655 12.3772 2.93344 12.3619 2.94323 12.3407C2.96282 12.2983 2.99401 12.2324 3.037 12.1464C3.12306 11.9743 3.25598 11.7225 3.43741 11.4177C3.80141 10.8062 4.35443 9.99176 5.10779 9.18045C6.6151 7.55719 8.86814 6 12 6C15.1319 6 17.3849 7.55719 18.8922 9.18045C19.6456 9.99176 20.1986 10.8062 20.5626 11.4177C20.744 11.7225 20.8769 11.9743 20.963 12.1464C21.006 12.2324 21.0372 12.2983 21.0568 12.3407C21.0666 12.3619 21.0734 12.3772 21.0775 12.3863L21.0809 12.3939L21.0815 12.3953C21.2995 12.902 21.8868 13.1365 22.3939 12.9191C22.9015 12.7016 23.1363 12.1129 22.9188 11.6052L22.9173 11.6018L22.9143 11.5949L22.9049 11.5736C22.8971 11.5561 22.8863 11.5321 22.8724 11.5021C22.8447 11.4419 22.8046 11.3574 22.7518 11.252C22.6465 11.0413 22.4904 10.7462 22.2812 10.3948C21.8639 9.69378 21.2294 8.75824 20.3578 7.81955C18.6151 5.9428 15.8681 4 12 4C8.13185 4 5.38489 5.9428 3.6422 7.81955C2.77056 8.75824 2.13608 9.69378 1.71883 10.3948C1.50964 10.7462 1.35349 11.0413 1.24815 11.252C1.19544 11.3574 1.15533 11.4419 1.12756 11.5021C1.11368 11.5321 1.10286 11.5561 1.09509 11.5736L1.08571 11.5949L1.08272 11.6018L1.08164 11.6042L1.08085 11.6061C0.863296 12.1137 1.09845 12.7016 1.60608 12.9191Z" fill="black"/>
<path d="M2.91863 11.6049C2.70067 11.0981 2.11331 10.8635 1.60608 11.0809C1.09845 11.2984 0.863659 11.8871 1.08121 12.3948L1.08165 12.3958L1.08272 12.3983L1.08571 12.4051L1.09509 12.4264C1.10287 12.4439 1.11368 12.4679 1.12757 12.498C1.15534 12.5581 1.19544 12.6426 1.24815 12.748C1.35349 12.9587 1.50964 13.2538 1.71883 13.6052C2.13608 14.3062 2.77056 15.2418 3.64221 16.1805C5.3849 18.0572 8.13185 20 12 20C15.8681 20 18.6151 18.0572 20.3578 16.1805C21.2294 15.2418 21.8639 14.3062 22.2812 13.6052C22.4904 13.2538 22.6465 12.9587 22.7518 12.748C22.8046 12.6426 22.8447 12.5581 22.8724 12.498C22.8863 12.4679 22.8971 12.4439 22.9049 12.4264L22.9143 12.4051L22.9173 12.3983L22.9191 12.3939C23.1367 11.8863 22.9015 11.2984 22.3939 11.0809C21.8865 10.8634 21.2986 11.0989 21.0809 11.6061L21.0775 11.6138C21.0734 11.6228 21.0666 11.6381 21.0568 11.6593C21.0372 11.7017 21.006 11.7676 20.963 11.8536C20.8769 12.0257 20.744 12.2775 20.5626 12.5823C20.1986 13.1938 19.6456 14.0083 18.8922 14.8196C17.3849 16.4428 15.1319 18 12 18C8.86815 18 6.6151 16.4428 5.10779 14.8196C4.35444 14.0083 3.80142 13.1938 3.43742 12.5823C3.25598 12.2775 3.12307 12.0257 3.037 11.8536C2.99401 11.7676 2.96283 11.7017 2.94323 11.6593C2.93344 11.6381 2.92655 11.6228 2.92254 11.6138L2.91863 11.6049Z" fill="black"/>
<path fill-rule="evenodd" clip-rule="evenodd" d="M12 10C10.8954 10 10 10.8954 10 12C10 12.5523 9.55228 13 9 13C8.44772 13 8 12.5523 8 12C8 9.79086 9.79086 8 12 8C14.2091 8 16 9.79086 16 12C16 12.5523 15.5523 13 15 13C14.4477 13 14 12.5523 14 12C14 10.8954 13.1046 10 12 10Z" fill="black"/>
<path fill-rule="evenodd" clip-rule="evenodd" d="M9 11C9.55228 11 10 11.4477 10 12C10 13.1046 10.8954 14 12 14C13.1046 14 14 13.1046 14 12C14 11.4477 14.4477 11 15 11C15.5523 11 16 11.4477 16 12C16 14.2091 14.2091 16 12 16C9.79086 16 8 14.2091 8 12C8 11.4477 8.44772 11 9 11Z" fill="black"/>
</svg>
