<svg width="24" height="24" viewBox="0 0 24 24" fill="none" xmlns="http://www.w3.org/2000/svg">
<path fill-rule="evenodd" clip-rule="evenodd" d="M10.6116 9.19827C10.9881 9.60233 10.9658 10.2351 10.5617 10.6116C10.3652 10.7947 10.2076 11.0155 10.0983 11.2608C9.989 11.5062 9.93022 11.771 9.92548 12.0395C9.92074 12.3081 9.97014 12.5748 10.0707 12.8239C10.1713 13.0729 10.321 13.2991 10.511 13.489C10.7009 13.679 10.9271 13.8287 11.1761 13.9293C11.4252 14.0299 11.6919 14.0793 11.9605 14.0745C12.229 14.0698 12.4938 14.011 12.7392 13.9017C12.9845 13.7924 13.2053 13.6348 13.3884 13.4383C13.7649 13.0342 14.3977 13.0119 14.8017 13.3884C15.2058 13.7649 15.2281 14.3977 14.8516 14.8017C14.4854 15.1947 14.0438 15.5099 13.5532 15.7285C13.0625 15.9472 12.5328 16.0647 11.9957 16.0742C11.4587 16.0837 10.9252 15.9849 10.4271 15.7837C9.92903 15.5825 9.47658 15.2831 9.09674 14.9033C8.71691 14.5234 8.41747 14.071 8.21629 13.5729C8.01512 13.0748 7.91632 12.5413 7.92579 12.0043C7.93527 11.4672 8.05283 10.9375 8.27145 10.4468C8.49007 9.95618 8.80529 9.51458 9.19828 9.14838C9.60234 8.77188 10.2351 8.79421 10.6116 9.19827Z" fill="black"/>
<path d="M12 4L11.9982 4C11.5329 4.00087 11.0681 4.03015 10.6064 4.08767C10.0583 4.15595 9.66942 4.65559 9.7377 5.20363C9.80598 5.75168 10.3056 6.14061 10.8537 6.07233C11.2343 6.02491 11.6174 6.00076 12.001 6C15.1323 6.00031 17.3851 7.55736 18.8922 9.18045C19.6456 9.99176 20.1986 10.8062 20.5626 11.4177C20.6973 11.6441 20.8053 11.8412 20.8872 11.9981C20.5123 12.726 20.0647 13.4146 19.5509 14.0531C19.2047 14.4834 19.2729 15.1129 19.7032 15.4591C20.1335 15.8053 20.7629 15.7372 21.1092 15.3069C21.8217 14.4213 22.425 13.4531 22.9061 12.4232C23.0266 12.1651 23.031 11.8671 22.9188 11.6052L22.9173 11.6018L22.9143 11.5949L22.9049 11.5736C22.8972 11.5561 22.8863 11.5321 22.8725 11.5021C22.8447 11.4419 22.8046 11.3574 22.7519 11.252C22.6465 11.0413 22.4904 10.7462 22.2812 10.3948C21.8639 9.69378 21.2295 8.75824 20.3578 7.81955C18.6151 5.94281 15.8682 4 12 4Z" fill="black"/>
<path d="M1.572 12.9038C2.07114 13.1402 2.6674 12.9271 2.90377 12.428C3.73976 10.6627 4.97529 9.12082 6.50798 7.92217L5.08469 6.49889C3.39561 7.86626 2.03067 9.59873 1.09621 11.572C0.859834 12.0712 1.07285 12.6674 1.572 12.9038Z" fill="black"/>
<path d="M2.91864 11.6049C2.70068 11.0981 2.11333 10.8635 1.6061 11.0809C1.09847 11.2984 0.863674 11.8871 1.08123 12.3948L1.08166 12.3958L1.08273 12.3982L1.08572 12.4051L1.09511 12.4264C1.10288 12.4439 1.11369 12.4679 1.12758 12.4979C1.15535 12.5581 1.19546 12.6426 1.24817 12.748C1.35351 12.9587 1.50966 13.2538 1.71885 13.6052C2.1361 14.3062 2.77058 15.2418 3.64222 16.1805C5.38472 18.057 8.13128 19.9996 11.9988 20C13.8358 20.0047 15.6386 19.5381 17.237 18.6512L15.7519 17.1661C14.5841 17.7164 13.304 18.0035 12.0027 18L12 18C8.86816 18 6.61512 16.4428 5.10781 14.8195C4.35445 14.0082 3.80143 13.1938 3.43743 12.5823C3.256 12.2775 3.12308 12.0257 3.03702 11.8536C2.99403 11.7676 2.96284 11.7017 2.94325 11.6593C2.93345 11.6381 2.92657 11.6228 2.92256 11.6137L2.91864 11.6049Z" fill="black"/>
<path fill-rule="evenodd" clip-rule="evenodd" d="M1.29289 1.29289C1.68342 0.902369 2.31658 0.902369 2.70711 1.29289L22.7071 21.2929C23.0976 21.6834 23.0976 22.3166 22.7071 22.7071C22.3166 23.0976 21.6834 23.0976 21.2929 22.7071L1.29289 2.70711C0.902369 2.31658 0.902369 1.68342 1.29289 1.29289Z" fill="black"/>
</svg>
