<svg width="24" height="24" viewBox="0 0 24 24" fill="none" xmlns="http://www.w3.org/2000/svg">
<path fill-rule="evenodd" clip-rule="evenodd" d="M11.0429 3.04287C12.3563 1.72949 14.1376 0.991638 15.995 0.991638C17.8524 0.991638 19.6337 1.72949 20.9471 3.04287C22.2605 4.35625 22.9983 6.13757 22.9983 7.99497C22.9983 9.85201 22.2608 11.633 20.9479 12.9463C20.9476 12.9466 20.9474 12.9468 20.9471 12.9471L14.2082 19.706C14.0205 19.8942 13.7657 20 13.5 20H5C4.44772 20 4 19.5523 4 19V10.5C4 10.2348 4.10536 9.9804 4.29289 9.79287L11.0429 3.04287ZM15.995 2.99164C14.668 2.99164 13.3954 3.51877 12.4571 4.45708L6 10.9142V18H13.0849L19.5318 11.5339L19.5329 11.5329C20.4712 10.5946 20.9983 9.32194 20.9983 7.99497C20.9983 6.66801 20.4712 5.39539 19.5329 4.45708C18.5946 3.51877 17.322 2.99164 15.995 2.99164Z" fill="black"/>
<path fill-rule="evenodd" clip-rule="evenodd" d="M16.7071 7.29289C17.0976 7.68342 17.0976 8.31658 16.7071 8.70711L2.70711 22.7071C2.31658 23.0976 1.68342 23.0976 1.29289 22.7071C0.902369 22.3166 0.902369 21.6834 1.29289 21.2929L15.2929 7.29289C15.6834 6.90237 16.3166 6.90237 16.7071 7.29289Z" fill="black"/>
<path fill-rule="evenodd" clip-rule="evenodd" d="M8 15C8 14.4477 8.44772 14 9 14H17.5C18.0523 14 18.5 14.4477 18.5 15C18.5 15.5523 18.0523 16 17.5 16H9C8.44772 16 8 15.5523 8 15Z" fill="black"/>
</svg>
