<svg width="24" height="24" viewBox="0 0 24 24" fill="none" xmlns="http://www.w3.org/2000/svg">
<path d="M2.00001 2C1.61069 2 1.25675 2.22596 1.0929 2.57912C0.929037 2.93229 0.985046 3.34845 1.23644 3.64573L5.76437 9L7.96081 8.5L4.15532 4H19.8447L15.3451 9.32081L16.9672 10.5L22.7636 3.64573C23.015 3.34845 23.071 2.93229 22.9071 2.57912C22.7433 2.22596 22.3893 2 22 2H2.00001Z" fill="black"/>
<path d="M15 12.8261V21C15 21.3466 14.8205 21.6684 14.5257 21.8507C14.2309 22.0329 13.8628 22.0494 13.5528 21.8944L9.55277 19.8944C9.21399 19.725 8.99999 19.3788 8.99999 19V12.8261L5.76434 9L7.96079 8.5L10.7636 11.8143C10.9162 11.9948 11 12.2236 11 12.46V18.382L13 19.382V12.46C13 12.2236 13.0838 11.9948 13.2364 11.8143L15.3451 9.32081L16.9671 10.5L15 12.8261Z" fill="black"/>
</svg>
