<svg width="24" height="24" viewBox="0 0 24 24" fill="none" xmlns="http://www.w3.org/2000/svg">
<path fill-rule="evenodd" clip-rule="evenodd" d="M12 3C7.02944 3 3 7.02944 3 12C3 16.9706 7.02944 21 12 21C16.9706 21 21 16.9706 21 12C21 7.02944 16.9706 3 12 3ZM1 12C1 5.92487 5.92487 1 12 1C18.0751 1 23 5.92487 23 12C23 18.0751 18.0751 23 12 23C5.92487 23 1 18.0751 1 12Z" fill="black"/>
<path d="M12 13C13.5255 13 14.7277 13.6109 15.5257 14.1913C15.9266 14.4828 16.2365 14.7743 16.4485 14.9956C16.555 15.1067 16.638 15.2013 16.6966 15.2712C16.726 15.3062 16.7493 15.3351 16.7666 15.3568L16.8 15.4C17.1314 15.8418 17.0418 16.4686 16.6 16.8C16.1596 17.1303 15.5353 17.0424 15.2031 16.6042L15.1985 16.5982C15.1925 16.5907 15.1812 16.5766 15.1647 16.5569C15.1315 16.5174 15.0778 16.4558 15.0046 16.3794C14.8573 16.2257 14.6359 16.0172 14.3493 15.8087C13.7723 15.3891 12.9745 15 12 15C11.0255 15 10.2277 15.3891 9.65067 15.8087C9.36406 16.0172 9.14272 16.2257 8.99542 16.3794C8.92219 16.4558 8.86846 16.5174 8.83531 16.5569C8.81876 16.5766 8.80745 16.5907 8.8015 16.5982L8.79686 16.6042C8.46468 17.0424 7.84043 17.1303 7.4 16.8C6.95817 16.4686 6.86863 15.8418 7.2 15.4L7.23341 15.3568C7.25065 15.3351 7.274 15.3062 7.30336 15.2712C7.362 15.2013 7.445 15.1067 7.55145 14.9956C7.76352 14.7743 8.07343 14.4828 8.47433 14.1913C9.27226 13.6109 10.4745 13 12 13Z" fill="black"/>
<path fill-rule="evenodd" clip-rule="evenodd" d="M8 9C8 8.44772 8.44772 8 9 8H9.01C9.56229 8 10.01 8.44772 10.01 9C10.01 9.55228 9.56229 10 9.01 10H9C8.44772 10 8 9.55228 8 9Z" fill="black"/>
<path fill-rule="evenodd" clip-rule="evenodd" d="M14 9C14 8.44772 14.4477 8 15 8H15.01C15.5623 8 16.01 8.44772 16.01 9C16.01 9.55228 15.5623 10 15.01 10H15C14.4477 10 14 9.55228 14 9Z" fill="black"/>
</svg>
