<svg width="18" height="10" viewBox="0 0 18 10" fill="none" xmlns="http://www.w3.org/2000/svg">
<path fill-rule="evenodd" clip-rule="evenodd" d="M7 2C7 0.89543 7.89543 0 9 0C10.1046 0 11 0.89543 11 2C11 3.10457 10.1046 4 9 4C7.89543 4 7 3.10457 7 2Z" fill="black"/>
<path fill-rule="evenodd" clip-rule="evenodd" d="M14 2C14 0.89543 14.8954 0 16 0C17.1046 0 18 0.89543 18 2C18 3.10457 17.1046 4 16 4C14.8954 4 14 3.10457 14 2Z" fill="black"/>
<path fill-rule="evenodd" clip-rule="evenodd" d="M0 2C0 0.89543 0.89543 0 2 0C3.10457 0 4 0.89543 4 2C4 3.10457 3.10457 4 2 4C0.89543 4 0 3.10457 0 2Z" fill="black"/>
<path fill-rule="evenodd" clip-rule="evenodd" d="M7 8C7 6.89543 7.89543 6 9 6C10.1046 6 11 6.89543 11 8C11 9.10457 10.1046 10 9 10C7.89543 10 7 9.10457 7 8Z" fill="black"/>
<path fill-rule="evenodd" clip-rule="evenodd" d="M14 8C14 6.89543 14.8954 6 16 6C17.1046 6 18 6.89543 18 8C18 9.10457 17.1046 10 16 10C14.8954 10 14 9.10457 14 8Z" fill="black"/>
<path fill-rule="evenodd" clip-rule="evenodd" d="M0 8C0 6.89543 0.89543 6 2 6C3.10457 6 4 6.89543 4 8C4 9.10457 3.10457 10 2 10C0.89543 10 0 9.10457 0 8Z" fill="black"/>
</svg>
