<svg width="24" height="24" viewBox="0 0 24 24" fill="none" xmlns="http://www.w3.org/2000/svg">
<path fill-rule="evenodd" clip-rule="evenodd" d="M6.5 8.5C6.5 7.39543 7.39543 6.5 8.5 6.5C9.60457 6.5 10.5 7.39543 10.5 8.5C10.5 9.60457 9.60457 10.5 8.5 10.5C7.39543 10.5 6.5 9.60457 6.5 8.5Z" fill="black"/>
<path fill-rule="evenodd" clip-rule="evenodd" d="M13.5 8.5C13.5 7.39543 14.3954 6.5 15.5 6.5C16.6046 6.5 17.5 7.39543 17.5 8.5C17.5 9.60457 16.6046 10.5 15.5 10.5C14.3954 10.5 13.5 9.60457 13.5 8.5Z" fill="black"/>
<path fill-rule="evenodd" clip-rule="evenodd" d="M6.5 15.5C6.5 14.3954 7.39543 13.5 8.5 13.5C9.60457 13.5 10.5 14.3954 10.5 15.5C10.5 16.6046 9.60457 17.5 8.5 17.5C7.39543 17.5 6.5 16.6046 6.5 15.5Z" fill="black"/>
<path fill-rule="evenodd" clip-rule="evenodd" d="M13.5 15.5C13.5 14.3954 14.3954 13.5 15.5 13.5C16.6046 13.5 17.5 14.3954 17.5 15.5C17.5 16.6046 16.6046 17.5 15.5 17.5C14.3954 17.5 13.5 16.6046 13.5 15.5Z" fill="black"/>
</svg>
