<svg width="24" height="24" viewBox="0 0 24 24" fill="none" xmlns="http://www.w3.org/2000/svg">
<path fill-rule="evenodd" clip-rule="evenodd" d="M7.79292 21.2071L1.29292 14.7071C1.08307 14.4972 0.97699 14.2048 1.00386 13.9092L2.00386 2.9092C2.05399 2.35932 2.54084 1.95393 3.09077 2.00393C3.61017 2.05128 4.00065 2.48827 4.00022 3.00002H10.8513L11.0163 5.39795L8.20676 8.20752C7.99669 8.41778 7.87863 8.70326 7.87863 9.00049C7.87876 9.29754 7.99681 9.58234 8.20676 9.79248C8.41699 10.0027 8.70242 10.1215 8.99973 10.1216C9.29712 10.1216 9.58241 10.0028 9.7927 9.79248L10.6726 8.9126C11.4225 8.16363 12.4398 7.74274 13.4997 7.74268V9.74268C12.9698 9.74274 12.4616 9.95316 12.0866 10.3276L12.0857 10.3267L11.2068 11.2075C10.6214 11.7927 9.82739 12.1216 8.99973 12.1216C8.17204 12.1215 7.37799 11.7928 6.7927 11.2075C6.20745 10.6223 5.87876 9.82815 5.87863 9.00049C5.87863 8.17267 6.20733 7.37785 6.7927 6.79248L8.58578 5.00002H3.8224L3.03804 13.624L9.20698 19.793L7.79292 21.2071Z" fill="black"/>
<path d="M18.7927 14.2075C19.0029 14.4178 19.1208 14.7031 19.1208 15.0005H21.1208L21.9999 15C22.2807 15 22.5488 14.8821 22.7382 14.6748C22.9277 14.4673 23.0215 14.189 22.996 13.9092L21.996 2.90916C21.9459 2.35928 21.459 1.95389 20.9091 2.00389C20.3592 2.05402 19.9538 2.54087 20.0038 3.0908L20.0118 3.17882L19.9348 3.1943L19.0671 3.36862L18.9753 3.38229C18.7604 3.40431 18.5435 3.35603 18.3571 3.24362L18.3513 3.24069L17.8815 2.96041C16.5851 2.18579 15.067 1.86554 13.5681 2.05026C12.5989 2.16971 11.6735 2.49604 10.8513 2.99998L11.0163 5.39791C11.771 4.64528 12.7553 4.16596 13.8132 4.03561C14.871 3.90532 15.9424 4.13126 16.8571 4.67819L16.8581 4.67916L17.3278 4.95846C17.9655 5.34181 18.7227 5.47521 19.4528 5.33151L19.4567 5.33053L20.1938 5.18203L20.9042 13H20.3963C20.3365 12.9283 20.2733 12.859 20.2067 12.7924L16.3268 8.91256L16.1833 8.77584C15.4497 8.11228 14.4935 7.74264 13.4997 7.74264V9.74264C14.0296 9.74264 14.5378 9.95221 14.9128 10.3266L18.7927 14.2075Z" fill="black"/>
<path d="M11.707 16.2929C11.3165 15.9024 10.6835 15.9024 10.293 16.2929C9.90244 16.6834 9.90244 17.3164 10.293 17.707L10.793 18.207C11.0033 18.4172 11.1211 18.7025 11.1211 18.9999C11.1211 19.2973 11.0033 19.5826 10.793 19.7929C10.5827 20.0032 10.2974 20.121 10 20.121C9.70261 20.121 9.41732 20.0032 9.20703 19.7929L7.79297 21.207C8.37833 21.7923 9.17217 22.121 10 22.121C10.8278 22.121 11.6217 21.7923 12.207 21.207C12.5048 20.9092 12.7361 20.5575 12.8916 20.1749C13.0239 20.2545 13.1623 20.3243 13.3057 20.3837C13.6843 20.5405 14.0902 20.621 14.5 20.621C14.9098 20.621 15.3157 20.5405 15.6943 20.3837C16.073 20.2269 16.4172 19.9968 16.707 19.707L15.293 18.2929C15.1888 18.397 15.0648 18.4797 14.9287 18.5361C14.7928 18.5923 14.6471 18.621 14.5 18.621C14.3529 18.621 14.2072 18.5923 14.0713 18.5361C13.9352 18.4797 13.8112 18.397 13.707 18.2929L11.707 16.2929Z" fill="black"/>
<path d="M15.536 17.9286C15.4797 18.0647 15.397 18.1888 15.2929 18.2929L16.7069 19.707C16.9968 19.4171 17.2268 19.073 17.3837 18.6943C17.4644 18.4993 17.5249 18.2972 17.5646 18.091C17.708 18.1112 17.8533 18.1215 17.9997 18.1215C18.8273 18.1215 19.6214 17.7926 20.2067 17.2074C20.792 16.6222 21.1206 15.8281 21.1208 15.0004H19.1208C19.1206 15.2976 19.0027 15.5822 18.7927 15.7924C18.5824 16.0027 18.2971 16.1215 17.9997 16.1215C17.7024 16.1214 17.4169 16.0026 17.2067 15.7924L14.7067 13.2924C14.3162 12.9023 13.6831 12.9021 13.2926 13.2924C12.9021 13.6829 12.9021 14.3169 13.2926 14.7074L15.316 16.7308C15.4093 16.8298 15.4839 16.9454 15.536 17.0712C15.5923 17.2072 15.621 17.3528 15.621 17.4999C15.621 17.647 15.5923 17.7927 15.536 17.9286Z" fill="black"/>
</svg>
