<svg width="22" height="22" viewBox="0 0 22 22" fill="none" xmlns="http://www.w3.org/2000/svg">
<path fill-rule="evenodd" clip-rule="evenodd" d="M20.639 0.292893C21.0295 0.683417 21.0295 1.31658 20.639 1.70711L19.3461 3L21.639 5.29289C22.0295 5.68342 22.0295 6.31658 21.639 6.70711L18.139 10.2071C17.7485 10.5976 17.1153 10.5976 16.7248 10.2071L14.4319 7.91421L11.6855 10.6607C11.9929 11.0765 12.2504 11.5285 12.4516 12.0075C12.7836 12.7978 12.9561 13.646 12.9589 14.5033C12.9618 15.3605 12.7951 16.2099 12.4683 17.0024C12.1416 17.795 11.6613 18.5151 11.0552 19.1213C10.449 19.7274 9.7289 20.2077 8.93635 20.5344C8.1438 20.8612 7.29445 21.0279 6.4372 21.025C5.57995 21.0221 4.73173 20.8497 3.94138 20.5177C3.15104 20.1857 2.43418 19.7006 1.83209 19.0904L1.82459 19.0828C0.640558 17.8568 -0.014564 16.2149 0.000245732 14.5106C0.0150555 12.8063 0.698653 11.176 1.90381 9.97089C3.10896 8.76574 4.73924 8.08214 6.44352 8.06733C7.81634 8.0554 9.1487 8.47819 10.2558 9.26194L19.2248 0.292893C19.6153 -0.0976311 20.2485 -0.0976311 20.639 0.292893ZM9.65377 11.3559C9.64446 11.3476 9.63527 11.339 9.6262 11.3303C8.77749 10.5106 7.64078 10.057 6.4609 10.0673C5.28101 10.0775 4.15236 10.5508 3.31802 11.3851C2.48368 12.2194 2.01042 13.3481 2.00017 14.528C1.98993 15.7061 2.44213 16.8412 3.25951 17.6895C3.67557 18.1101 4.17051 18.4446 4.71603 18.6738C5.26319 18.9037 5.85041 19.023 6.4439 19.025C7.03738 19.027 7.62539 18.9116 8.17408 18.6854C8.72277 18.4592 9.2213 18.1267 9.64095 17.707C10.0606 17.2874 10.3931 16.7889 10.6193 16.2402C10.8455 15.6915 10.9609 15.1035 10.9589 14.51C10.957 13.9165 10.8376 13.3293 10.6077 12.7821C10.3841 12.2498 10.0602 11.7656 9.65377 11.3559ZM15.8461 6.5L17.4319 8.08579L19.5177 6L17.9319 4.41421L15.8461 6.5Z" fill="black"/>
</svg>
