<svg width="24" height="24" viewBox="0 0 24 24" fill="none" xmlns="http://www.w3.org/2000/svg">
<path fill-rule="evenodd" clip-rule="evenodd" d="M7.05025 3.05025C8.36301 1.7375 10.1435 1 12 1C13.8565 1 15.637 1.7375 16.9497 3.05025C18.2625 4.36301 19 6.14349 19 8C19 9.53847 18.4119 11.1128 17.1899 12.2244C16.4678 12.9494 16.1244 13.477 15.9806 14.1961C15.8723 14.7377 15.3454 15.0889 14.8039 14.9806C14.2623 14.8723 13.9111 14.3454 14.0194 13.8039C14.2744 12.5287 14.9268 11.659 15.7929 10.7929C15.8053 10.7805 15.818 10.7684 15.831 10.7567C16.5948 10.0693 17 9.05279 17 8C17 6.67392 16.4732 5.40215 15.5355 4.46447C14.5979 3.52678 13.3261 3 12 3C10.6739 3 9.40215 3.52678 8.46447 4.46447C7.52678 5.40215 7 6.67392 7 8C7 8.80425 7.13863 9.72442 8.20711 10.7929C8.96334 11.5491 9.72386 12.5203 9.98058 13.8039C10.0889 14.3454 9.73768 14.8723 9.19612 14.9806C8.65456 15.0889 8.12773 14.7377 8.01942 14.1961C7.87614 13.4797 7.43666 12.8509 6.79289 12.2071C5.26137 10.6756 5 9.19575 5 8C5 6.14348 5.7375 4.36301 7.05025 3.05025Z" fill="black"/>
<path fill-rule="evenodd" clip-rule="evenodd" d="M8 18C8 17.4477 8.44772 17 9 17H15C15.5523 17 16 17.4477 16 18C16 18.5523 15.5523 19 15 19H9C8.44772 19 8 18.5523 8 18Z" fill="black"/>
<path fill-rule="evenodd" clip-rule="evenodd" d="M9 22C9 21.4477 9.44772 21 10 21H14C14.5523 21 15 21.4477 15 22C15 22.5523 14.5523 23 14 23H10C9.44772 23 9 22.5523 9 22Z" fill="black"/>
</svg>
