<svg width="24" height="24" viewBox="0 0 24 24" fill="none" xmlns="http://www.w3.org/2000/svg">
<path fill-rule="evenodd" clip-rule="evenodd" d="M21.6051 5.20387C21.8539 5.39297 22 5.6875 22 6V18C22 18.3033 21.8623 18.5902 21.6257 18.78C21.3891 18.9698 21.0792 19.042 20.7831 18.9762L12.5414 17.1447C12.399 17.6225 12.1687 18.0698 11.8619 18.4635C11.5384 18.8787 11.1363 19.2262 10.6785 19.486C10.2207 19.7458 9.71627 19.9129 9.1939 19.9778C8.67153 20.0426 8.1415 20.004 7.63407 19.864C7.12665 19.724 6.65176 19.4855 6.23652 19.162C5.82129 18.8384 5.47384 18.4363 5.21402 17.9785C4.95419 17.5207 4.78708 17.0163 4.72222 16.4939C4.6774 16.1329 4.68202 15.7683 4.73533 15.41L2.78307 14.9762C2.32553 14.8745 2 14.4687 2 14V11C2 10.5508 2.29954 10.1567 2.73236 10.0365L20.7324 5.03648C21.0335 4.95285 21.3563 5.01477 21.6051 5.20387ZM6.69759 15.8461C6.68733 15.9795 6.69041 16.114 6.70698 16.2475C6.73948 16.5092 6.82321 16.762 6.95339 16.9913C7.08357 17.2207 7.25766 17.4222 7.4657 17.5843C7.67375 17.7463 7.91169 17.8659 8.16593 17.936C8.42017 18.0061 8.68573 18.0255 8.94746 17.993C9.20919 17.9605 9.46195 17.8768 9.69132 17.7466C9.92069 17.6164 10.1222 17.4423 10.2843 17.2343C10.4086 17.0746 10.508 16.8974 10.5791 16.7086L6.69759 15.8461ZM4 11.7601V13.1978L20 16.7534V7.31564L4 11.7601Z" fill="black"/>
</svg>
