<svg width="24" height="24" viewBox="0 0 24 24" fill="none" xmlns="http://www.w3.org/2000/svg">
<path d="M19.8203 2.00977C20.1902 1.97641 20.5623 2.04678 20.8945 2.21289C21.2265 2.37895 21.506 2.63448 21.7012 2.9502C21.8962 3.266 22 3.63079 22 4.00195V16.002C21.9998 16.3731 21.8963 16.738 21.7012 17.0537C21.5059 17.3692 21.2264 17.6251 20.8945 17.791C20.5624 17.957 20.1901 18.0275 19.8203 17.9941C19.4506 17.9608 19.0968 17.8242 18.7998 17.6016C18.7932 17.5966 18.7858 17.5911 18.7793 17.5859C16.5892 15.8536 13.864 14.9401 11.0732 15.001C11.2401 16.1568 11.6934 17.2594 12.4004 18.2021C12.8772 18.8384 13.0821 19.6386 12.9697 20.4258C12.857 21.2131 12.4361 21.9251 11.7998 22.4023C11.1635 22.8792 10.3633 23.084 9.57617 22.9717C8.78876 22.8592 8.077 22.438 7.59961 21.8018C6.20588 19.9433 5.34271 17.7518 5.08398 15.4609L5.04004 15.002H5C4.20456 15.002 3.44147 14.6854 2.87891 14.123C2.31651 13.5607 2.00024 12.7973 2 12.002V8.00195C2 7.20652 2.31658 6.44343 2.87891 5.88086C3.44152 5.31825 4.20435 5.00195 5 5.00195H11.0254C13.8325 5.07426 16.5769 4.15988 18.7793 2.41797C18.7858 2.41284 18.7932 2.40732 18.7998 2.40234C19.0969 2.17952 19.4504 2.04314 19.8203 2.00977ZM7.04785 15.001C7.23266 17.0243 7.97339 18.9647 9.2002 20.6006C9.35929 20.8126 9.59603 20.9537 9.8584 20.9912C10.1208 21.0287 10.3875 20.9597 10.5996 20.8008C10.8116 20.6418 10.9526 20.4048 10.9902 20.1426C11.0276 19.8803 10.9586 19.6134 10.7998 19.4014C9.8932 18.1925 9.31135 16.7796 9.0957 15.2979L9.05762 15.001H7.04785ZM20 4.00098C17.5945 5.89656 14.6383 6.94803 11.5869 7.00293L10.9746 7.00098H9V13.001H10.9746C14.2412 12.9169 17.4339 13.9788 20 16.001V4.00098ZM5 7.00098C4.73484 7.00098 4.48049 7.10649 4.29297 7.29395C4.10563 7.4814 4.00007 7.73596 4 8.00098V12.001C4.00012 12.266 4.10562 12.5206 4.29297 12.708C4.48048 12.8954 4.73489 13.001 5 13.001H7V7.00098H5Z" fill="black"/>
</svg>
