<svg width="24" height="24" viewBox="0 0 24 24" fill="none" xmlns="http://www.w3.org/2000/svg">
<path fill-rule="evenodd" clip-rule="evenodd" d="M6.11896 3.91002C8.04524 2.50647 10.4095 1.83706 12.7856 2.02243C15.1618 2.20781 17.3936 3.23577 19.0789 4.92107C20.7642 6.60638 21.7922 8.83821 21.9776 11.2144C22.163 13.5905 21.4935 15.9548 20.09 17.8811C18.6864 19.8073 16.641 21.169 14.3224 21.7206C12.1442 22.2388 9.85945 22.0102 7.83253 21.0788L2.32107 22.9471C1.96061 23.0692 1.56205 22.9762 1.29292 22.7071C1.02379 22.438 0.930774 22.0394 1.05296 21.6789L2.92125 16.1675C1.98982 14.1406 1.7612 11.8558 2.2794 9.67765C2.83103 7.35898 4.19268 5.31358 6.11896 3.91002ZM12.6301 4.01637C10.7292 3.86808 8.83776 4.4036 7.29674 5.52645C5.75571 6.64929 4.6664 8.28561 4.2251 10.1405C3.78379 11.9955 4.01951 13.947 4.88979 15.6436C5.01328 15.8843 5.03395 16.1648 4.94709 16.421L3.5974 20.4026L7.57899 19.0529C7.83522 18.9661 8.11572 18.9867 8.35645 19.1102C10.053 19.9805 12.0045 20.2162 13.8595 19.7749C15.7144 19.3336 17.3507 18.2443 18.4736 16.7033C19.5964 15.1623 20.1319 13.2709 19.9836 11.3699C19.8353 9.46899 19.013 7.68353 17.6647 6.33529C16.3165 4.98704 14.531 4.16467 12.6301 4.01637Z" fill="black"/>
<path d="M12.2582 8.02434C11.7927 7.94449 11.314 8.03197 10.9068 8.27129C10.4996 8.5106 10.1902 8.88631 10.0335 9.33187C9.85018 9.85286 9.27926 10.1266 8.75827 9.94336C8.23728 9.76008 7.96351 9.18917 8.14678 8.66818C8.46025 7.77707 9.07898 7.02565 9.89339 6.54702C10.7078 6.06839 11.6653 5.89343 12.5964 6.05313C13.5274 6.21283 14.3719 6.69688 14.9802 7.41955C15.5884 8.14207 15.9214 9.0565 15.9201 10.0009C15.9197 11.5313 14.7851 12.5419 13.9748 13.0821C13.5392 13.3725 13.1107 13.586 12.795 13.7263C12.6358 13.7971 12.5016 13.8508 12.405 13.8876L12.2363 13.9487C11.7124 14.1234 11.1461 13.8402 10.9714 13.3162C10.7969 12.7927 11.0796 12.2267 11.6028 12.0517L11.693 12.0187C11.7605 11.993 11.8607 11.9529 11.9827 11.8987C12.2296 11.789 12.551 11.6276 12.8654 11.418C13.555 10.9582 13.9201 10.4692 13.9201 10L13.9201 9.99853C13.9208 9.52621 13.7543 9.06889 13.4502 8.70755C13.146 8.34622 12.7238 8.10419 12.2582 8.02434Z" fill="black"/>
<path fill-rule="evenodd" clip-rule="evenodd" d="M11 17C11 16.4477 11.4477 16 12 16H12.01C12.5623 16 13.01 16.4477 13.01 17C13.01 17.5523 12.5623 18 12.01 18H12C11.4477 18 11 17.5523 11 17Z" fill="black"/>
</svg>
