<svg width="24" height="24" viewBox="0 0 24 24" fill="none" xmlns="http://www.w3.org/2000/svg">
<path d="M21 5C21 4.73478 20.8946 4.48051 20.707 4.29297C20.5195 4.10543 20.2652 4 20 4H4C3.73478 4 3.48051 4.10543 3.29297 4.29297C3.10543 4.48051 3 4.73478 3 5V20.5859L4.70703 18.8789L4.92676 18.6797C5.46048 18.2422 6.13198 18.0001 6.82812 18H20C20.2652 18 20.5195 17.8946 20.707 17.707C20.8946 17.5195 21 17.2652 21 17V5ZM23 17C23 17.7957 22.6837 18.5585 22.1211 19.1211C21.5585 19.6837 20.7957 20 20 20H6.82812C6.56296 20.0001 6.30857 20.1054 6.12109 20.293L3.91895 22.4951C3.6799 22.7341 3.37545 22.8969 3.04395 22.9629C2.71233 23.0288 2.36805 22.9956 2.05566 22.8662C1.74327 22.7368 1.47598 22.5174 1.28809 22.2363C1.1236 21.9902 1.02663 21.7059 1.00488 21.4121L1 21.2861V5C1 4.20435 1.3163 3.44152 1.87891 2.87891C2.44152 2.3163 3.20435 2 4 2H20C20.7956 2 21.5585 2.3163 22.1211 2.87891C22.6837 3.44152 23 4.20435 23 5V17Z" fill="black"/>
<path d="M12.9561 6.15923C13.6571 5.94023 14.4096 5.94754 15.1064 6.17974C15.8031 6.41197 16.4094 6.85749 16.8389 7.45317C17.268 8.04858 17.4996 8.76419 17.5 9.4981L17.4961 9.67095C17.4583 10.5336 17.1252 11.3593 16.5498 12.0079C16.5457 12.0125 16.5413 12.017 16.5371 12.0215L13.5293 15.2862L13.5273 15.2842C13.3313 15.5107 13.0919 15.6959 12.8203 15.8233C12.811 15.8277 12.8015 15.8319 12.792 15.836C12.545 15.9426 12.2788 15.9987 12.0098 16C11.7408 16.0014 11.4746 15.9478 11.2266 15.8438C11.2166 15.8396 11.2062 15.8356 11.1963 15.8311C10.9177 15.7034 10.6719 15.5157 10.4717 15.2842L10.4707 15.2862L7.46191 12.0215L7.46289 12.0206C6.8469 11.3597 6.5 10.4172 6.5 9.50005C6.5 8.76546 6.73161 8.0491 7.16113 7.45317C7.59063 6.85749 8.19685 6.41197 8.89355 6.17974C9.59036 5.94754 10.3429 5.94023 11.0439 6.15923C11.3872 6.26648 11.7085 6.42684 12 6.62993C12.2915 6.42684 12.6128 6.26648 12.9561 6.15923ZM8.50879 9.66997C8.5416 10.0065 8.66784 10.3257 8.83789 10.5538L8.92676 10.6602L8.93262 10.6661L11.9414 13.9307L11.9795 13.9747C11.985 13.9813 11.9934 13.9848 12 13.9903C12.0065 13.9848 12.0151 13.9813 12.0205 13.9747L12.0586 13.9307L15.0596 10.6729C15.3438 10.3491 15.5009 9.93308 15.5 9.502V9.50005L15.4951 9.38286C15.4737 9.10961 15.3779 8.84667 15.2168 8.6231C15.0328 8.36778 14.7732 8.17678 14.4746 8.0772C14.1759 7.97764 13.8532 7.97454 13.5527 8.06841C13.2523 8.16227 12.9887 8.34789 12.7998 8.59966C12.611 8.85147 12.3148 9.00005 12 9.00005C11.6852 9.00005 11.389 8.85147 11.2002 8.59966C11.0113 8.34789 10.7477 8.16227 10.4473 8.06841C10.1468 7.97454 9.82406 7.97764 9.52539 8.0772C9.22685 8.17678 8.96722 8.36778 8.7832 8.6231C8.59914 8.87849 8.5 9.18524 8.5 9.50005L8.50879 9.66997Z" fill="black"/>
</svg>
