<svg width="24" height="24" viewBox="0 0 24 24" fill="none" xmlns="http://www.w3.org/2000/svg">
<path fill-rule="evenodd" clip-rule="evenodd" d="M22.7071 14.7071C23.0976 14.3166 23.0976 13.6834 22.7071 13.2929C22.3166 12.9024 21.6834 12.9024 21.2929 13.2929L18 16.5858L16.7071 15.2929C16.3166 14.9024 15.6834 14.9024 15.2929 15.2929C14.9024 15.6834 14.9024 16.3166 15.2929 16.7071L17.2929 18.7071C17.6834 19.0977 18.3166 19.0977 18.7071 18.7071L22.7071 14.7071Z" fill="black"/>
<path d="M13.4979 1.4028C13.0424 1.14027 12.5258 1.00208 12 1.00208V3.00208C12.1755 3.00208 12.348 3.04828 12.5 3.13605L18.981 6.8395L16.4964 8.26581L9.51451 4.27063L7.49965 5.42197L14.4861 9.41979L12 10.847L5.01898 6.8395L4 8.56066L11 12.579V20.5783L4.5 16.864L4.49842 16.8631C4.34726 16.7754 4.22169 16.6497 4.13423 16.4984C4.04654 16.3467 4.00025 16.1746 4 15.9994L2 16.0011C2.00054 16.5271 2.13941 17.0438 2.40269 17.4993C2.66597 17.9548 3.04439 18.333 3.5 18.5961L3.50386 18.5983L10.5 22.5961L10.5019 22.5971C10.9345 22.8465 11.4223 22.9837 11.9207 22.9969C11.9469 22.999 11.9733 23 12 23C12.0267 23 12.0531 22.999 12.0793 22.9969C12.5774 22.9838 13.0648 22.8467 13.4973 22.5976L13.5 22.5961L15.4952 21.4588C15.975 21.1853 16.1423 20.5746 15.8688 20.0948C15.5953 19.615 14.9846 19.4478 14.5048 19.7212L13 20.579V12.579L16.9305 10.3227C16.9767 10.3007 17.0214 10.2751 17.064 10.2461L20 8.56066V10C20 10.5523 20.4477 11 21 11C21.5523 11 22 10.5523 22 10V7.999C21.9995 7.47291 21.8606 6.95621 21.5973 6.50074C21.334 6.04527 20.9556 5.66704 20.5 5.40399L13.5 1.404L13.4979 1.4028Z" fill="black"/>
<path d="M10.5021 1.40276C10.9577 1.14026 11.4742 1.00208 12 1.00208V3.00208C11.8245 3.00208 11.652 3.04828 11.5 3.13605L11.4961 3.13827L9.51451 4.27063L7.49965 5.42197L5.01898 6.8395L4 8.56066V15.9994L2 16.0011V7.999C2.00054 7.47291 2.13941 6.95621 2.40269 6.50074C2.66597 6.04527 3.04439 5.66704 3.5 5.404L3.50386 5.40177L6.98756 3.41109C6.99779 3.40501 7.00811 3.39911 7.01852 3.3934L10.5021 1.40276Z" fill="black"/>
</svg>
