<svg width="24" height="24" viewBox="0 0 24 24" fill="none" xmlns="http://www.w3.org/2000/svg">
<path d="M5.61346 2.65023C5.76572 2.11935 6.31952 1.81242 6.8504 1.96468L9.01422 2.58529C9.42045 2.7018 9.70959 3.06111 9.73649 3.48287L9.86182 5.44737C9.89698 5.99853 9.47868 6.47384 8.92752 6.50901C8.37635 6.54417 7.90104 6.12587 7.86588 5.5747L7.85165 5.35172C5.48454 7.28322 4.21056 10.2656 4.45414 13.3136L2.43669 13.0985C2.27319 9.59249 3.7534 6.19453 6.43697 3.92674L6.299 3.88717C5.76812 3.73491 5.46119 3.18111 5.61346 2.65023Z" fill="black"/>
<path d="M4.45423 13.3141L4.9209 13.0097C5.38346 12.7079 6.00306 12.8383 6.30482 13.3008C6.60658 13.7634 6.47623 14.383 6.01367 14.6848L4.25871 15.8296C3.94291 16.0357 3.53806 16.0465 3.21166 15.8577L1.32078 14.7641C0.8427 14.4875 0.679303 13.8758 0.955819 13.3978C1.23234 12.9197 1.84405 12.7563 2.32213 13.0328L2.43678 13.0991L4.45423 13.3141Z" fill="black"/>
<path d="M10.2073 9.74725C10.0507 9.45607 9.96875 9.13061 9.96875 8.8C9.96875 8.05486 10.266 7.34183 10.7925 6.81733C11.3188 6.2931 12.031 6 12.7719 6H13.1735C13.6511 6 14.0094 6.16444 14.1972 6.26969C14.3961 6.38119 14.5421 6.50447 14.6311 6.58664C14.8074 6.74951 14.9399 6.92004 15.0215 7.03146C15.1938 7.26685 15.3579 7.54375 15.497 7.7936L15.9413 8.69042C16.0835 8.97674 16.2253 9.27274 16.3588 9.55752C16.7884 10.4738 17.0703 11.4342 17.2221 12.4055C17.2943 12.4218 17.3661 12.439 17.4373 12.4571L20.791 13.31L20.298 15.2483L16.9443 14.3954C16.664 14.3241 16.3789 14.2728 16.0909 14.2453C15.9839 14.2351 15.8669 14.2243 15.7524 14.2143C15.6094 14.202 15.4701 14.191 15.3587 14.1843C15.3587 13.917 15.3479 13.65 15.3259 13.3843C15.2711 12.7216 15.1468 12.0671 14.9478 11.4345C14.8377 11.0843 14.7047 10.7409 14.5479 10.4065C14.444 10.1847 14.336 9.95842 14.2279 9.73775C14.2019 9.68479 14.176 9.63216 14.1501 9.58L13.9303 9.10178C13.875 8.99631 13.8208 8.89522 13.7682 8.8C13.5852 8.46898 13.4217 8.209 13.3016 8.08308C13.2504 8.02933 13.207 8 13.1735 8H12.7719C12.5589 8 12.3546 8.08429 12.204 8.23431C12.0534 8.38434 11.9688 8.58783 11.9688 8.8C11.9688 8.8 12.2123 9.25275 12.5204 9.88623L12.7524 10.4233C12.8544 10.6427 12.958 10.8726 13.0581 11.105C13.4302 11.9691 13.7524 12.8669 13.7524 13.3843V17.0083L11.7524 14.3131V13.415C11.7503 13.4009 11.7431 13.3546 11.7221 13.2697C11.6876 13.1297 11.631 12.946 11.5505 12.7217C11.3893 12.2729 11.167 11.7574 10.9387 11.266L10.4667 10.2474C10.3868 10.0898 10.3205 9.96214 10.2749 9.87506C10.2521 9.83155 10.2345 9.79827 10.2229 9.77654L10.2103 9.75282L10.2073 9.74725Z" fill="black"/>
<path d="M10.5246 16.1296C10.8049 16.1486 11.1048 16.2007 11.4155 16.2955L13.7525 17.0081L11.7525 14.3128C11.0015 14.1175 10.276 14.0813 9.62948 14.1597C8.95752 14.2413 8.21595 14.4677 7.63055 14.9302C7.34712 15.1541 6.92531 15.5739 6.7469 16.2315C6.5329 17.0203 6.76521 17.8005 7.26206 18.348C7.67782 18.8062 8.19037 19.0152 8.54015 19.119C8.9206 19.232 9.32629 19.2841 9.72784 19.3021C9.87722 19.3087 10.0723 19.3432 10.7633 20.3385C10.7942 20.383 10.8275 20.4315 10.863 20.4832C11.1246 20.8642 11.5061 21.42 11.9458 21.8595C12.502 22.4155 13.3597 23.0081 14.5556 23.0081H19.776V21.0081H14.5556C13.6556 21.0081 13.1068 20.2127 12.5175 19.3589L12.5175 19.3589C12.3279 19.0842 12.1342 18.8035 11.9232 18.5412C11.6517 18.2037 11.3518 17.8968 10.9955 17.6728C10.8564 17.5853 10.7086 17.5104 10.5507 17.4513C10.328 17.368 10.085 17.316 9.81706 17.3041C8.03399 17.2245 8.54282 16.3071 9.8688 16.1454C10.0703 16.1208 10.2906 16.1137 10.5246 16.1296Z" fill="black"/>
<path d="M20.9808 19.8088C20.9567 20.4648 20.4347 20.9848 19.7761 21.0088V23.0088C19.8004 23.0088 19.8247 23.0084 19.849 23.0075C21.5481 22.9456 22.9167 21.592 22.9795 19.8823C22.9804 19.8578 22.9808 19.8333 22.9808 19.8088V16.3208C22.9808 15.0846 22.2691 13.9537 21.1336 13.4317C21.0233 13.381 20.9087 13.3405 20.7911 13.3105L20.2982 15.2488C20.7158 15.4408 20.9808 15.8568 20.9808 16.3208V19.8088Z" fill="black"/>
</svg>
