<svg width="24" height="24" viewBox="0 0 24 24" fill="none" xmlns="http://www.w3.org/2000/svg">
<g clip-path="url(#clip0_27703_489)">
<mask id="mask0_27703_489" style="mask-type:luminance" maskUnits="userSpaceOnUse" x="0" y="0" width="24" height="24">
<path d="M24 0H0V24H24V0Z" fill="white"/>
</mask>
<g mask="url(#mask0_27703_489)">
<path d="M4.9371 9.47711C4.95364 9.46057 4.97795 9.45286 4.99982 9.45611C5.54609 9.5374 6.05482 9.16046 6.13611 8.61419C6.2174 8.06792 5.84046 7.55919 5.29419 7.4779C4.64406 7.38115 3.98635 7.59944 3.52289 8.0629L4.9371 9.47711Z" fill="black"/>
<path fill-rule="evenodd" clip-rule="evenodd" d="M8.55308 5.84035C8.76165 5.32896 9.34529 5.08348 9.85668 5.29206C10.3911 5.51003 10.8633 5.8568 11.2313 6.30148C11.5834 6.72697 11.5239 7.35733 11.0985 7.70943C10.673 8.06154 10.0426 8.00205 9.69049 7.57656C9.53278 7.38599 9.33042 7.23737 9.10137 7.14395C8.58998 6.93538 8.3445 6.35174 8.55308 5.84035Z" fill="black"/>
<path fill-rule="evenodd" clip-rule="evenodd" d="M8.55308 5.84035C8.76165 5.32896 9.34529 5.08348 9.85668 5.29206C10.3911 5.51003 10.8633 5.8568 11.2313 6.30148C11.5834 6.72697 11.5239 7.35733 11.0985 7.70943C10.673 8.06154 10.0426 8.00205 9.69049 7.57656C9.53278 7.38599 9.33042 7.23737 9.10137 7.14395C8.58998 6.93538 8.3445 6.35174 8.55308 5.84035Z" fill="black"/>
<path fill-rule="evenodd" clip-rule="evenodd" d="M8.32113 4.156C8.86735 4.07433 9.37634 4.45092 9.45801 4.99713C9.45833 4.99931 9.45924 5.0051 9.46618 5.01763C9.47394 5.03162 9.49043 5.05585 9.52286 5.0877C9.59167 5.15529 9.70537 5.23054 9.85569 5.29166C10.3673 5.4997 10.6134 6.08309 10.4053 6.59469C10.1973 7.10629 9.61392 7.35238 9.10232 7.14434C8.49469 6.89726 7.63494 6.32915 7.48 5.29288C7.39833 4.74666 7.77492 4.23766 8.32113 4.156Z" fill="black"/>
<path fill-rule="evenodd" clip-rule="evenodd" d="M11.9987 2.998C11.8141 2.99777 11.6312 3.034 11.4607 3.10461C11.2901 3.17523 11.1351 3.27884 11.0047 3.4095L9.47911 4.93511C9.46208 4.95214 9.45466 4.97456 9.45802 4.99713C9.53931 5.5434 9.16247 6.05282 8.6162 6.13411C8.06993 6.2154 7.5613 5.83914 7.48001 5.29288C7.38337 4.64345 7.59993 3.98586 8.0649 3.5209L9.58929 1.99651C9.90566 1.67975 10.282 1.42794 10.6957 1.2567C11.1096 1.08535 11.5533 0.997433 12.0013 0.998004C12.5535 0.998707 13.0007 1.44699 13 1.99928C12.9993 2.55156 12.551 2.99871 11.9987 2.998Z" fill="black"/>
<path fill-rule="evenodd" clip-rule="evenodd" d="M11 1.998C11 1.44572 11.4477 0.998001 12 0.998001C12.8718 0.998001 13.7463 1.33212 14.4111 1.9969L15.9791 3.5649C15.9822 3.568 15.986 3.5704 15.9905 3.57186C15.9948 3.57331 15.9984 3.5734 16.0011 3.573C16.5473 3.49132 17.0563 3.8679 17.138 4.41411C17.2197 4.96033 16.8431 5.46933 16.2969 5.55101C15.6608 5.64612 15.018 5.43222 14.5649 4.97911L12.9969 3.41111C12.7217 3.13588 12.3622 2.998 12 2.998C11.4477 2.998 11 2.55029 11 1.998Z" fill="black"/>
<path fill-rule="evenodd" clip-rule="evenodd" d="M17.5307 2.6617C18.0456 2.86144 18.301 3.44077 18.1013 3.95567C17.8663 4.56139 17.3105 5.39886 16.2969 5.55101C15.7507 5.63299 15.242 5.25661 15.1601 4.71044C15.0781 4.16456 15.454 3.65559 15.9997 3.57321C16.0067 3.57054 16.0274 3.5599 16.0614 3.52512C16.1185 3.46668 16.1845 3.36678 16.2367 3.23233C16.4364 2.71743 17.0158 2.46195 17.5307 2.6617Z" fill="black"/>
<path fill-rule="evenodd" clip-rule="evenodd" d="M19.9263 3.06384C19.6872 2.99272 19.4343 2.98231 19.1902 3.03354C18.9462 3.08478 18.7188 3.19605 18.5285 3.35729C18.3383 3.51853 18.1913 3.72465 18.1008 3.95701C17.9003 4.47162 17.3206 4.72626 16.806 4.52578C16.2914 4.32529 16.0367 3.74558 16.2372 3.23098C16.4484 2.68881 16.7915 2.20786 17.2353 1.83164C17.6792 1.45541 18.2099 1.19577 18.7793 1.07622C19.3487 0.956665 19.939 0.980962 20.4967 1.14691C21.026 1.30443 21.3275 1.86124 21.1699 2.39059C21.0124 2.91993 20.4556 3.22136 19.9263 3.06384Z" fill="black"/>
<path fill-rule="evenodd" clip-rule="evenodd" d="M19.253 1.82017C19.4105 1.29083 19.9673 0.989398 20.4967 1.14692C21.0544 1.31287 21.5619 1.61524 21.9733 2.02667C22.3848 2.43811 22.6871 2.94561 22.8531 3.5033C23.019 4.06099 23.0433 4.65126 22.9238 5.2207C22.8042 5.79014 22.5446 6.32079 22.1683 6.76465C21.7921 7.2085 21.3112 7.55156 20.769 7.76278C20.2544 7.96327 19.6747 7.70863 19.4742 7.19402C19.2737 6.67941 19.5284 6.09971 20.043 5.89922C20.2753 5.8087 20.4814 5.66167 20.6427 5.47145C20.8039 5.28122 20.9152 5.0538 20.9664 4.80976C21.0177 4.56571 21.0073 4.31273 20.9361 4.07372C20.865 3.83471 20.7354 3.61722 20.5591 3.44089C20.3828 3.26456 20.1653 3.13497 19.9263 3.06385C19.3969 2.90633 19.0955 2.34952 19.253 1.82017Z" fill="black"/>
<path fill-rule="evenodd" clip-rule="evenodd" d="M21.3383 6.46933C21.538 6.98423 21.2826 7.56356 20.7677 7.76331C20.6326 7.81572 20.5328 7.88169 20.4747 7.93838C20.4415 7.97084 20.4308 7.99069 20.428 7.99774L20.4276 8.00044C20.4267 8.00615 20.4285 8.01434 20.4351 8.0209C20.8256 8.41142 20.8256 9.04458 20.4351 9.43511C20.0446 9.82563 19.4114 9.82563 19.0209 9.43511C18.5679 8.98214 18.3537 8.3392 18.4501 7.70156C18.6013 6.68656 19.4408 6.13283 20.0443 5.8987C20.5592 5.69895 21.1385 5.95443 21.3383 6.46933Z" fill="black"/>
<path fill-rule="evenodd" clip-rule="evenodd" d="M19.0209 8.02089C19.4114 7.63036 20.0446 7.63036 20.4351 8.02089L22.0031 9.58889C22.3936 9.97941 22.3936 10.6126 22.0031 11.0031C21.6126 11.3936 20.9794 11.3936 20.5889 11.0031L19.0209 9.4351C18.6304 9.04457 18.6304 8.41141 19.0209 8.02089Z" fill="black"/>
<path fill-rule="evenodd" clip-rule="evenodd" d="M20.5889 9.5889C20.9794 9.19837 21.6126 9.19837 22.0031 9.5889C22.6679 10.2537 23.002 11.1282 23.002 12C23.002 12.5523 22.5542 13 22.002 13C21.4497 13 21.002 12.5523 21.002 12C21.002 11.6378 20.8641 11.2783 20.5889 11.0031C20.1984 10.6126 20.1983 9.97942 20.5889 9.5889Z" fill="black"/>
<path fill-rule="evenodd" clip-rule="evenodd" d="M22.002 11C22.5543 11 23.002 11.4477 23.002 12C23.002 12.8715 22.6691 13.7451 22.0031 14.4111L20.3921 16.0221C20.1733 16.2406 19.9061 16.4053 19.6124 16.5021C19.0879 16.6751 18.5225 16.3901 18.3496 15.8656C18.1771 15.3426 18.46 14.7789 18.9816 14.6042L20.5889 12.9969C20.8649 12.7209 21.002 12.3625 21.002 12C21.002 11.4477 21.4497 11 22.002 11Z" fill="black"/>
<path fill-rule="evenodd" clip-rule="evenodd" d="M14.5503 12.175C15.1136 12.0099 15.7094 11.9892 16.2828 12.1146C16.8562 12.24 17.3889 12.5076 17.8319 12.8927C18.2487 13.2551 18.2928 13.8867 17.9304 14.3035C17.568 14.7203 16.9364 14.7644 16.5196 14.402C16.3297 14.2369 16.1013 14.1222 15.8555 14.0684C15.6096 14.0146 15.3542 14.0235 15.1127 14.0943C14.5827 14.2496 14.0271 13.9458 13.8718 13.4158C13.7165 12.8858 14.0203 12.3303 14.5503 12.175Z" fill="black"/>
<path fill-rule="evenodd" clip-rule="evenodd" d="M16.4211 12.9912C16.7835 12.5744 17.4151 12.5304 17.8319 12.8927C18.2745 13.2776 18.6133 13.7674 18.8172 14.3173C18.8618 14.4363 18.9192 14.523 18.9664 14.5715C18.985 14.5905 18.9974 14.5995 19.0036 14.6032C19.5454 14.6884 19.918 15.1948 19.8371 15.7383C19.7557 16.2846 19.2469 16.6614 18.7007 16.5801C17.7086 16.4323 17.1663 15.6139 16.9431 15.0155L16.9423 15.0133C16.8548 14.7774 16.7095 14.5671 16.5196 14.402C16.1028 14.0396 16.0587 13.408 16.4211 12.9912Z" fill="black"/>
<path fill-rule="evenodd" clip-rule="evenodd" d="M20.249 15.2392C20.422 15.7637 20.1369 16.3291 19.6124 16.5021C19.3188 16.5989 19.0065 16.6256 18.7007 16.5801C18.1544 16.4987 17.7776 15.9899 17.8589 15.4437C17.9401 14.899 18.4462 14.5227 18.9906 14.6012C19.5139 14.4314 20.0765 14.7162 20.249 15.2392Z" fill="black"/>
<path fill-rule="evenodd" clip-rule="evenodd" d="M15.7911 12.8534C15.9464 13.3834 15.6427 13.939 15.1127 14.0943C14.8712 14.1651 14.6513 14.2954 14.4734 14.4734C14.2954 14.6513 14.1651 14.8711 14.0943 15.1127C14.0235 15.3542 14.0146 15.6096 14.0684 15.8554C14.1864 16.395 13.8447 16.928 13.3052 17.046C12.7656 17.164 12.2326 16.8223 12.1146 16.2828C11.9892 15.7093 12.0099 15.1136 12.175 14.5503C12.3401 13.987 12.6441 13.4742 13.0592 13.0591C13.4742 12.6441 13.987 12.34 14.5503 12.175C15.0803 12.0197 15.6358 12.3234 15.7911 12.8534Z" fill="black"/>
<path fill-rule="evenodd" clip-rule="evenodd" d="M12.8778 15.0922C13.4174 14.9742 13.9504 15.3159 14.0684 15.8554C14.1222 16.1013 14.2369 16.3297 14.402 16.5196C14.5671 16.7095 14.7774 16.8548 15.0134 16.9423C15.5313 17.1341 15.7956 17.7095 15.6037 18.2274C15.4119 18.7452 14.8366 19.0096 14.3187 18.8177C13.7682 18.6138 13.2779 18.2748 12.8927 17.8319C12.5076 17.3889 12.24 16.8562 12.1146 16.2828C11.9966 15.7432 12.3383 15.2102 12.8778 15.0922Z" fill="black"/>
<path fill-rule="evenodd" clip-rule="evenodd" d="M13.7288 17.5312C13.9215 17.0136 14.4972 16.7502 15.0148 16.9428C15.6149 17.1662 16.4325 17.7077 16.5801 18.701C16.6613 19.2473 16.2843 19.756 15.738 19.8371C15.1943 19.918 14.6878 19.5448 14.603 19.0026C14.5994 18.9966 14.5907 18.9844 14.5719 18.9661C14.5239 18.9194 14.4375 18.862 14.3172 18.8172C13.7996 18.6245 13.5362 18.0488 13.7288 17.5312Z" fill="black"/>
<path fill-rule="evenodd" clip-rule="evenodd" d="M15.4432 17.859C15.9894 17.7773 16.4985 18.1548 16.5801 18.701C16.6259 19.007 16.5991 19.3186 16.5022 19.6125C16.4053 19.9063 16.2409 20.1733 16.0221 20.3921L14.4133 22.0009C14.0968 22.3183 13.7201 22.5707 13.3061 22.7424C12.7959 22.9539 12.2109 22.7119 11.9993 22.2017C11.7878 21.6915 12.0299 21.1065 12.54 20.8949C12.7109 20.8241 12.8661 20.7201 12.9967 20.5891L12.9979 20.5879L14.6005 18.9853C14.5252 18.4431 14.9005 17.9401 15.4432 17.859Z" fill="black"/>
<path fill-rule="evenodd" clip-rule="evenodd" d="M13.8468 21.4356C14.0583 21.9458 13.8163 22.5308 13.3061 22.7424C12.8918 22.9142 12.4476 23.0024 11.9991 23.002C11.4468 23.0015 10.9995 22.5534 11 22.0011C11.0005 21.4488 11.4486 21.0015 12.0009 21.002C12.1859 21.0022 12.3691 20.9658 12.54 20.8949C13.0502 20.6834 13.6352 20.9255 13.8468 21.4356Z" fill="black"/>
<path d="M9.43511 19.0209L11.0041 20.5899C11.1346 20.7208 11.2896 20.8245 11.4603 20.8952C11.631 20.966 11.814 21.0022 11.9987 21.002C12.551 21.0013 12.9993 21.4484 13 22.0007C13.0007 22.553 12.5536 23.0013 12.0013 23.002C11.553 23.0026 11.109 22.9145 10.6948 22.7429C10.2808 22.5714 9.90482 22.3198 9.58838 22.0026L8.0209 20.4351C8.01802 20.4322 8.01389 20.4294 8.01003 20.4282C8.00682 20.4271 8.00365 20.4266 8.0003 20.4268L7.99805 20.4271C7.45176 20.5083 6.94308 20.1313 6.86187 19.585C6.78066 19.0388 7.15768 18.5301 7.70396 18.4489C8.01729 18.4023 8.33718 18.4298 8.63794 18.5293C8.9387 18.6287 9.21132 18.7967 9.43511 19.0209Z" fill="black"/>
<path d="M3.06382 19.9263C2.9927 19.6873 2.98229 19.4343 3.03353 19.1903C3.08477 18.9462 3.19604 18.7188 3.35728 18.5286C3.51839 18.3385 3.72432 18.1915 3.95646 18.101C4.56161 17.866 5.39991 17.3104 5.55019 16.2955C5.63109 15.7491 5.25378 15.2407 4.70745 15.1598C4.16151 15.0789 3.65338 15.4557 3.57194 16.0014C3.56917 16.0084 3.55851 16.0286 3.52471 16.0616C3.46655 16.1186 3.3668 16.1845 3.23231 16.2367L3.23096 16.2372C2.6888 16.4484 2.20785 16.7915 1.83162 17.2354C1.45539 17.6792 1.19576 18.2099 1.0762 18.7793C0.956651 19.3487 0.980949 19.939 1.14689 20.4967L3.06382 19.9263Z" fill="black"/>
<path d="M4.07371 20.9361C3.8347 20.865 3.61719 20.7354 3.44086 20.5591C3.26453 20.3828 3.13495 20.1653 3.06382 19.9263L1.14689 20.4967C1.31285 21.0544 1.61521 21.5619 2.02665 21.9733C2.43808 22.3848 2.9456 22.6871 3.50329 22.8531C4.06097 23.019 4.65124 23.0433 5.22068 22.9238C5.79012 22.8042 6.32077 22.5446 6.76462 22.1684L6.2115 20.81L5.89921 20.043C5.80868 20.2753 5.66165 20.4815 5.47142 20.6427C5.2812 20.8039 5.05378 20.9152 4.80973 20.9664C4.56569 21.0177 4.31272 21.0073 4.07371 20.9361Z" fill="black"/>
<path d="M7.70257 18.4491C6.68895 18.6012 6.13368 19.4386 5.8987 20.0443L5.89921 20.043L6.2115 20.81L6.86187 19.585C6.78066 19.0388 7.15768 18.5301 7.70396 18.4489L7.70257 18.4491Z" fill="black"/>
<path d="M6.76462 22.1684C7.20848 21.7921 7.55155 21.3112 7.76277 20.769L7.76331 20.7677C7.81547 20.6332 7.88148 20.5333 7.93862 20.4749C7.97264 20.4401 7.99331 20.4295 8.0003 20.4268L7.99805 20.4271V20.4271C7.45176 20.5083 6.94308 20.1313 6.86187 19.585L6.2115 20.81L6.76462 22.1684Z" fill="black"/>
<path d="M5.29416 7.4779C4.74795 7.39623 4.23963 7.77292 4.15796 8.31913C4.07629 8.86535 4.45357 9.37445 4.99979 9.45611C5.00196 9.45644 5.00707 9.45724 5.0196 9.46418C5.03359 9.47193 5.05782 9.48843 5.08967 9.52086C5.15725 9.58966 5.2325 9.70337 5.29363 9.85369L5.29402 9.85466C5.512 10.3891 5.85877 10.8613 6.30344 11.2293C6.74812 11.5973 7.2769 11.8496 7.84269 11.9637C8.40848 12.0779 8.99371 12.0503 9.54628 11.8835C10.0989 11.7167 10.6016 11.4159 11.0097 11.0077C11.4179 10.5996 11.7187 10.0969 11.8855 9.54431C12.0523 8.99175 12.0799 8.40651 11.9657 7.84072C11.8516 7.27493 11.5993 6.74615 11.2313 6.30148C11.5834 6.72697 11.5239 7.35733 11.0985 7.70943C10.673 8.06154 10.0426 8.00205 9.69045 7.57656C9.84816 7.76714 9.95628 7.99375 10.0052 8.23624C10.0541 8.47872 10.0423 8.72953 9.97083 8.96635C9.89934 9.20316 9.77041 9.41862 9.5955 9.59353C9.42058 9.76845 9.20513 9.89739 8.96831 9.96887C8.7315 10.0404 8.48068 10.0522 8.2382 10.0032C7.99572 9.95433 7.7691 9.8462 7.57852 9.6885C7.38805 9.53087 7.23949 9.32861 7.14606 9.09972C6.89885 8.49212 6.33009 7.63278 5.29416 7.4779Z" fill="black"/>
<path d="M3.41109 11.0031L4.93709 9.47711L3.52288 8.0629L1.99688 9.5889C1.33211 10.2537 0.997986 11.1282 0.997986 12L3.41109 11.0031Z" fill="black"/>
<path d="M3.4111 12.9969L3.41007 12.9959L1.25707 13.3052C1.42857 13.7192 1.6807 14.0957 1.99791 14.4121L3.56466 15.9789C3.56753 15.9818 3.56969 15.9853 3.57096 15.9891C3.57224 15.993 3.57255 15.9973 3.57195 16.0014C3.49027 16.5476 3.86689 17.0563 4.4131 17.138C4.95931 17.2197 5.46831 16.8431 5.54999 16.2969C5.59682 15.9837 5.56959 15.6639 5.47049 15.3632C5.37138 15.0624 5.20293 14.7889 4.97909 14.5649L3.4111 12.9969Z" fill="black"/>
<path d="M3.41109 11.0031L0.997986 12C0.997585 12.4479 1.08563 12.8915 1.25707 13.3052L3.41007 12.9959C3.27923 12.8654 3.17547 12.7104 3.10476 12.5397C3.03404 12.369 2.99775 12.186 2.99799 12.0013V12C2.99799 11.6378 3.13586 11.2783 3.41109 11.0031Z" fill="black"/>
</g>
</g>
<defs>
<clipPath id="clip0_27703_489">
<rect width="24" height="24" fill="white"/>
</clipPath>
</defs>
</svg>
