<svg width="24" height="24" viewBox="0 0 24 24" fill="none" xmlns="http://www.w3.org/2000/svg">
    <path d="M12 22.994c-.89 0-1.77-.36-2.41-1l-1.57-1.57c-.05 0-.17.1-.26.33a3.5 3.5 0 0 1-4.53 1.99c-.87-.34-1.56-1-1.93-1.85-.38-.86-.4-1.81-.06-2.68.35-.91 1.08-1.64 1.99-1.99.23-.09.33-.21.34-.24l-1.58-1.59a3.39 3.39 0 0 1-.99-2.4c0-.91.35-1.77 1-2.41l1.53-1.53c.46-.46 1.12-.68 1.77-.59.81.12 1.48.71 1.85 1.62.15.37.44.66.81.82.37.15.78.16 1.15 0a1.502 1.502 0 0 0 0-2.78c-.91-.37-1.5-1.04-1.62-1.85-.1-.65.12-1.31.58-1.77l1.52-1.52c.63-.63 1.51-1 2.41-1 .91 0 1.77.35 2.41 1l1.57 1.57c.05 0 .17-.1.26-.33a3.5 3.5 0 0 1 6.52 2.54c-.35.91-1.08 1.64-1.99 1.99-.23.09-.33.2-.34.24v.02L22 9.584c.64.65 1 1.5 1 2.41 0 .91-.35 1.77-1 2.41l-1.61 1.61c-.44.44-1.07.65-1.69.56-.78-.12-1.43-.7-1.76-1.56-.14-.38-.42-.68-.78-.84a1.48 1.48 0 0 0-1.15-.04c-.38.14-.68.42-.84.78-.17.36-.18.77-.04 1.15.15.41.48.73.89.89.87.32 1.45.98 1.57 1.76.09.62-.12 1.25-.56 1.69l-1.61 1.61c-.63.64-1.51 1-2.41 1H12v-.02Zm0-2c.38 0 .73-.15 1-.41l1.61-1.61s-.11-.09-.29-.16a3.507 3.507 0 0 1-1.97-4.75 3.47 3.47 0 0 1 1.96-1.82c.88-.32 1.83-.29 2.68.1.85.39 1.5 1.09 1.82 1.96.07.18.16.27.19.29l1.58-1.61c.27-.27.41-.62.41-1s-.15-.73-.41-1l-1.57-1.57a2.02 2.02 0 0 1-.57-1.73c.12-.79.71-1.46 1.59-1.8a1.499 1.499 0 1 0-1.94-1.94c-.34.88-1.01 1.48-1.8 1.59a2.04 2.04 0 0 1-1.73-.57l-1.57-1.57a1.39 1.39 0 0 0-1-.41c-.37 0-.73.15-.99.41l-1.53 1.53c-.02.1.09.24.38.36a3.48 3.48 0 0 1 1.92 1.92c.35.87.35 1.82-.01 2.68-.36.86-1.04 1.53-1.9 1.88-.87.35-1.82.35-2.68-.01a3.468 3.468 0 0 1-1.88-1.9c-.11-.26-.25-.39-.29-.4l-1.59 1.55c-.27.27-.41.62-.41 1 0 .37.15.73.41 1l1.57 1.57c.45.45.67 1.1.57 1.73-.12.79-.71 1.46-1.59 1.81-.39.15-.7.46-.85.85-.15.37-.14.78.02 1.15.16.37.46.65.83.79.77.3 1.64-.08 1.94-.85.34-.88 1.02-1.48 1.8-1.59.63-.09 1.28.12 1.73.57l1.57 1.57c.27.27.62.41.99.41v-.02Z" fill="#000"/>
</svg>
