<svg width="24" height="24" viewBox="0 0 24 24" fill="none" xmlns="http://www.w3.org/2000/svg">
<path fill-rule="evenodd" clip-rule="evenodd" d="M11.7929 0.792893C11.4024 1.18342 11.4024 1.81658 11.7929 2.20711L12.0858 2.5L7.5 2.5C6.39543 2.5 5.5 3.39543 5.5 4.5V5C5.5 5.55228 5.94771 6 6.5 6C7.05229 6 7.5 5.55228 7.5 5V4.5H12.0858L11.7929 4.79289C11.4024 5.18342 11.4024 5.81658 11.7929 6.20711C12.1834 6.59763 12.8166 6.59763 13.2071 6.20711L15.2071 4.20711C15.3946 4.01957 15.5 3.76522 15.5 3.5C15.5 3.23478 15.3946 2.98043 15.2071 2.79289L13.2071 0.792893C12.8166 0.402369 12.1834 0.402369 11.7929 0.792893ZM20.7071 8.29289C20.5196 8.10535 20.2652 8 20 8L14 8C13.4477 8 13 8.44771 13 9L13 15C13 15.5523 13.4477 16 14 16L20 16C20.5523 16 21 15.5523 21 15L21 9C21 8.73478 20.8946 8.48043 20.7071 8.29289ZM19 10L19 14L15 14L15 10L19 10ZM9 10L9 14L5 14L5 10L9 10ZM11 9C11 8.44771 10.5523 8 10 8L4 8C3.44772 8 3 8.44771 3 9L3 15C3 15.5523 3.44772 16 4 16L10 16C10.5523 16 11 15.5523 11 15L11 9ZM11.2071 17.7929C10.8166 17.4024 10.1834 17.4024 9.79289 17.7929L7.79289 19.7929C7.60536 19.9804 7.5 20.2348 7.5 20.5C7.5 20.7652 7.60536 21.0196 7.79289 21.2071L9.79289 23.2071C10.1834 23.5976 10.8166 23.5976 11.2071 23.2071C11.5976 22.8166 11.5976 22.1834 11.2071 21.7929L10.9142 21.5H15.5C16.6046 21.5 17.5 20.6046 17.5 19.5V19C17.5 18.4477 17.0523 18 16.5 18C15.9477 18 15.5 18.4477 15.5 19V19.5H10.9142L11.2071 19.2071C11.5976 18.8166 11.5976 18.1834 11.2071 17.7929Z" fill="black"/>
</svg>
