<svg width="24" height="24" viewBox="0 0 24 24" fill="none" xmlns="http://www.w3.org/2000/svg">
<path d="M21 4C21 3.44772 20.5523 3 20 3H4C3.44772 3 3 3.44772 3 4V8C3 8.55228 3.44772 9 4 9H20C20.5523 9 21 8.55228 21 8V4ZM23 8C23 9.65685 21.6569 11 20 11H4C2.34315 11 1 9.65685 1 8V4C1 2.34315 2.34315 1 4 1H20C21.6569 1 23 2.34315 23 4V8Z" fill="black"/>
<path d="M21 16C21 15.4477 20.5523 15 20 15H4C3.44772 15 3 15.4477 3 16V20C3 20.5523 3.44772 21 4 21H20C20.5523 21 21 20.5523 21 20V16ZM23 20C23 21.6569 21.6569 23 20 23H4C2.34315 23 1 21.6569 1 20V16C1 14.3431 2.34315 13 4 13H20C21.6569 13 23 14.3431 23 16V20Z" fill="black"/>
<circle cx="6" cy="6" r="1" fill="black"/>
<circle cx="6" cy="18" r="1" fill="black"/>
</svg>
