<svg width="24" height="24" viewBox="0 0 24 24" fill="none" xmlns="http://www.w3.org/2000/svg">
<path fill-rule="evenodd" clip-rule="evenodd" d="M12 8C10.9391 8 9.92172 8.42143 9.17157 9.17157C8.42143 9.92172 8 10.9391 8 12V17H16V12C16 10.9391 15.5786 9.92172 14.8284 9.17157C14.0783 8.42143 13.0609 8 12 8ZM7.75736 7.75736C8.88258 6.63214 10.4087 6 12 6C13.5913 6 15.1174 6.63214 16.2426 7.75736C17.3679 8.88258 18 10.4087 18 12V18C18 18.5523 17.5523 19 17 19H7C6.44772 19 6 18.5523 6 18V12C6 10.4087 6.63214 8.88258 7.75736 7.75736Z" fill="black"/>
<path fill-rule="evenodd" clip-rule="evenodd" d="M7 19C6.73478 19 6.48043 19.1054 6.29289 19.2929C6.10536 19.4804 6 19.7348 6 20V21H18V20C18 19.7348 17.8946 19.4804 17.7071 19.2929C17.5196 19.1054 17.2652 19 17 19H7ZM4.87868 17.8787C5.44129 17.3161 6.20435 17 7 17H17C17.7957 17 18.5587 17.3161 19.1213 17.8787C19.6839 18.4413 20 19.2043 20 20V22C20 22.5523 19.5523 23 19 23H5C4.44772 23 4 22.5523 4 22V20C4 19.2044 4.31607 18.4413 4.87868 17.8787Z" fill="black"/>
<path fill-rule="evenodd" clip-rule="evenodd" d="M20 12C20 11.4477 20.4477 11 21 11H22C22.5523 11 23 11.4477 23 12C23 12.5523 22.5523 13 22 13H21C20.4477 13 20 12.5523 20 12Z" fill="black"/>
<path fill-rule="evenodd" clip-rule="evenodd" d="M19.2071 3.79289C19.5976 4.18342 19.5976 4.81658 19.2071 5.20711L18.7071 5.70711C18.3166 6.09763 17.6834 6.09763 17.2929 5.70711C16.9024 5.31658 16.9024 4.68342 17.2929 4.29289L17.7929 3.79289C18.1834 3.40237 18.8166 3.40237 19.2071 3.79289Z" fill="black"/>
<path fill-rule="evenodd" clip-rule="evenodd" d="M1 12C1 11.4477 1.44772 11 2 11H3C3.55228 11 4 11.4477 4 12C4 12.5523 3.55228 13 3 13H2C1.44772 13 1 12.5523 1 12Z" fill="black"/>
<path fill-rule="evenodd" clip-rule="evenodd" d="M12 1C12.5523 1 13 1.44772 13 2V3C13 3.55228 12.5523 4 12 4C11.4477 4 11 3.55228 11 3V2C11 1.44772 11.4477 1 12 1Z" fill="black"/>
<path fill-rule="evenodd" clip-rule="evenodd" d="M4.22185 4.22189C4.61237 3.83137 5.24554 3.83137 5.63606 4.22189L6.34306 4.92889C6.73359 5.31942 6.73359 5.95258 6.34306 6.34311C5.95254 6.73363 5.31937 6.73363 4.92885 6.34311L4.22185 5.63611C3.83132 5.24558 3.83132 4.61242 4.22185 4.22189Z" fill="black"/>
<path fill-rule="evenodd" clip-rule="evenodd" d="M12 11C12.5523 11 13 11.4477 13 12V18C13 18.5523 12.5523 19 12 19C11.4477 19 11 18.5523 11 18V12C11 11.4477 11.4477 11 12 11Z" fill="black"/>
</svg>
