<svg width="20" height="19" viewBox="0 0 20 19" fill="none" xmlns="http://www.w3.org/2000/svg">
<path fill-rule="evenodd" clip-rule="evenodd" d="M6 4C6 1.79086 7.79086 0 10 0C12.2091 0 14 1.79086 14 4C14 5.95279 12.6006 7.57875 10.75 7.9298C10.5071 7.97589 10.2563 8 10 8C9.74365 8 9.49294 7.97589 9.25 7.9298C7.39935 7.57875 6 5.95279 6 4ZM10 2C8.89543 2 8 2.89543 8 4C8 5.10457 8.89543 6 10 6C11.1046 6 12 5.10457 12 4C12 2.89543 11.1046 2 10 2Z" fill="#0A0908"/>
<path fill-rule="evenodd" clip-rule="evenodd" d="M0 15.0769C0 13.6555 0.96386 12.4592 2.27365 12.1059C2.52973 12.0368 2.79902 12 3.07692 12C3.32576 12 3.5677 12.0295 3.79943 12.0853C5.15017 12.4103 6.15385 13.6264 6.15385 15.0769C6.15385 16.7763 4.77626 18.1538 3.07692 18.1538C1.37759 18.1538 0 16.7763 0 15.0769ZM3.07692 14C2.48215 14 2 14.4822 2 15.0769C2 15.6717 2.48215 16.1538 3.07692 16.1538C3.67169 16.1538 4.15385 15.6717 4.15385 15.0769C4.15385 14.4822 3.67169 14 3.07692 14ZM6.92308 15.0769C6.92308 13.6363 7.91316 12.4269 9.25 12.0921C9.49006 12.0319 9.7413 12 10 12C10.2587 12 10.5099 12.0319 10.75 12.0921C12.0868 12.4269 13.0769 13.6363 13.0769 15.0769C13.0769 16.7763 11.6993 18.1538 10 18.1538C8.30066 18.1538 6.92308 16.7763 6.92308 15.0769ZM10 14C9.40523 14 8.92308 14.4822 8.92308 15.0769C8.92308 15.6717 9.40523 16.1538 10 16.1538C10.5948 16.1538 11.0769 15.6717 11.0769 15.0769C11.0769 14.4822 10.5948 14 10 14ZM16.9231 14C16.3283 14 15.8462 14.4822 15.8462 15.0769C15.8462 15.6717 16.3283 16.1538 16.9231 16.1538C17.5178 16.1538 18 15.6717 18 15.0769C18 14.4822 17.5178 14 16.9231 14ZM13.8462 15.0769C13.8462 13.6264 14.8498 12.4103 16.2006 12.0853C16.4323 12.0295 16.6742 12 16.9231 12C17.201 12 17.4703 12.0368 17.7263 12.1059C19.0361 12.4592 20 13.6555 20 15.0769C20 16.7763 18.6224 18.1538 16.9231 18.1538C15.2237 18.1538 13.8462 16.7763 13.8462 15.0769Z" fill="#0A0908"/>
<path d="M10.75 10.75H14.5C15.3236 10.75 16.0143 11.319 16.2006 12.0853C16.4323 12.0295 16.6742 12 16.9231 12C17.201 12 17.4703 12.0368 17.7263 12.1059C17.5318 10.4968 16.1615 9.25 14.5 9.25H10.75V7.9298C10.5071 7.97589 10.2563 8 10 8C9.74365 8 9.49294 7.97589 9.25 7.9298V9.25H5.5C3.83847 9.25 2.46815 10.4968 2.27365 12.1059C2.52973 12.0368 2.79902 12 3.07692 12C3.32576 12 3.5677 12.0295 3.79943 12.0853C3.98565 11.319 4.67638 10.75 5.5 10.75H9.25V12.0921C9.49006 12.0319 9.7413 12 10 12C10.2587 12 10.5099 12.0319 10.75 12.0921V10.75Z" fill="#0A0908"/>
</svg>
