<svg width="24" height="24" viewBox="0 0 24 24" fill="none" xmlns="http://www.w3.org/2000/svg">
<path d="M21.0005 11.9996L15.442 10.9488C14.8494 10.8368 14.3039 10.5481 13.8775 10.1216C13.4513 9.6953 13.1633 9.15049 13.0513 8.55817L12.0005 2.99957H11.9996L10.9488 8.55817C10.8368 9.1507 10.5481 9.69523 10.1216 10.1216C9.69511 10.5482 9.14991 10.8358 8.55719 10.9478L2.99957 11.9996V12.0005L8.55817 13.0513C9.15049 13.1633 9.6953 13.4513 10.1216 13.8775C10.5481 14.3039 10.8368 14.8494 10.9488 15.442L11.9996 21.0005V21.0025L12.0005 21.0005L13.0513 15.442C13.1634 14.8494 13.4511 14.3039 13.8775 13.8775C14.3039 13.4511 14.8494 13.1634 15.442 13.0513L21.0005 12.0005L21.0025 11.9996H21.0005ZM23.0025 11.9996C23.0025 12.4663 22.8388 12.9188 22.5406 13.2779C22.2424 13.6368 21.8284 13.8807 21.3697 13.9664L21.3687 13.9654L15.814 15.0162C15.6165 15.0535 15.4347 15.1504 15.2925 15.2925C15.1504 15.4347 15.0535 15.6165 15.0162 15.814L13.9654 21.3687C13.8797 21.8274 13.6368 22.2424 13.2779 22.5406C12.9188 22.8388 12.4663 23.0025 11.9996 23.0025C11.533 23.0024 11.0812 22.8387 10.7222 22.5406C10.3633 22.2424 10.1194 21.8284 10.0338 21.3697V21.3687L8.98297 15.814C8.94565 15.6165 8.84973 15.4347 8.70758 15.2925C8.5654 15.1504 8.38367 15.0535 8.1861 15.0162L2.63043 13.9654V13.9664C2.17164 13.8807 1.75675 13.6369 1.45856 13.2779C1.16047 12.9189 0.99762 12.4662 0.99762 11.9996C0.997723 11.5331 1.16059 11.0811 1.45856 10.7222C1.71944 10.4081 2.06982 10.1827 2.46051 10.0738L2.63043 10.0338L8.1861 8.98297C8.38367 8.94565 8.5654 8.84976 8.70758 8.70758C8.84976 8.5654 8.94565 8.38367 8.98297 8.1861L10.0338 2.63043L10.0738 2.46051C10.1827 2.06982 10.4081 1.71944 10.7222 1.45856C11.0811 1.16059 11.5331 0.997723 11.9996 0.99762C12.4662 0.99762 12.9189 1.16047 13.2779 1.45856C13.6369 1.75675 13.8807 2.17164 13.9664 2.63043H13.9654L15.0162 8.1861C15.0535 8.38367 15.1504 8.5654 15.2925 8.70758C15.4347 8.84973 15.6165 8.94565 15.814 8.98297L21.3687 10.0338C21.8274 10.1194 22.2424 10.3633 22.5406 10.7222C22.8387 11.0812 23.0024 11.533 23.0025 11.9996Z" fill="black"/>
<path d="M19 6V5H18C17.4477 5 17 4.55228 17 4C17 3.44772 17.4477 3 18 3H19V2C19 1.44772 19.4477 1 20 1C20.5523 1 21 1.44772 21 2V3H22C22.5523 3 23 3.44772 23 4C23 4.55228 22.5523 5 22 5H21V6C21 6.55228 20.5523 7 20 7C19.4477 7 19 6.55228 19 6Z" fill="black"/>
<path d="M5 20C5 19.4477 4.55228 19 4 19C3.44772 19 3 19.4477 3 20C3 20.5523 3.44772 21 4 21C4.55228 21 5 20.5523 5 20ZM7 20C7 21.6569 5.65685 23 4 23C2.34315 23 1 21.6569 1 20C1 18.3431 2.34315 17 4 17C5.65685 17 7 18.3431 7 20Z" fill="black"/>
</svg>
