<?xml version="1.0" encoding="UTF-8"?>
<svg id="Ebene_1" xmlns="http://www.w3.org/2000/svg" version="1.1" viewBox="0 0 24 24">
  <!-- Generator: Adobe Illustrator 29.0.1, SVG Export Plug-In . SVG Version: 2.1.0 Build 192)  -->
  <path d="M12,1C5.9,1,1,5.9,1,12s4.9,11,11,11,11-4.9,11-11S18.1,1,12,1ZM12,2.7c5.1,0,9.3,4.2,9.3,9.3s-4.2,9.3-9.3,9.3-8-3-9-7l3.1,1.3c.1,1.3,1.2,2.3,2.5,2.3s2.5-1.1,2.5-2.5,0,0,0,0l3.5-2.5c1.8,0,3.2-1.6,3.2-3.4s-1.5-3.4-3.4-3.4-3.3,1.4-3.4,3.2l-2.5,3.5s0,0,0,0c-.6,0-1.1.2-1.5.5l-4.4-1.9C3,6.6,7.1,2.7,12,2.7ZM14.5,6.9c1.4,0,2.5,1.1,2.5,2.5s-1.1,2.5-2.5,2.5-2.5-1.1-2.5-2.5,1.1-2.5,2.5-2.5ZM14.5,7.8c-.9,0-1.7.8-1.7,1.7s.8,1.7,1.7,1.7,1.7-.8,1.7-1.7-.8-1.7-1.7-1.7ZM8.6,13.7c.9,0,1.7.8,1.7,1.7s-.8,1.7-1.7,1.7-1.3-.4-1.5-1l.7.3c.2,0,.3.1.5.1.5,0,1-.3,1.2-.8.3-.6,0-1.4-.7-1.7l-.6-.3c.2,0,.3,0,.5,0Z"/>
</svg>
