<svg width="24" height="24" viewBox="0 0 24 24" fill="none" xmlns="http://www.w3.org/2000/svg">
<path fill-rule="evenodd" clip-rule="evenodd" d="M14.5256 2.35024C15.5744 1.94993 16.7208 1.88139 17.8099 2.15388C18.6759 2.37057 19.4724 2.7946 20.1327 3.38515C20.9449 3.08663 21.7152 2.68262 22.4237 2.18288C22.7643 1.94262 23.2183 1.93884 23.5628 2.1734C23.9074 2.40797 24.0703 2.83167 23.9717 3.23666C23.6292 4.64319 22.9426 5.93961 21.977 7.01102C21.9918 7.17242 21.9996 7.33448 22.0001 7.49674L22.0001 7.50005C22.0001 13.6 19.0632 18.0751 14.845 20.3203C10.651 22.5525 5.29097 22.5278 0.51446 19.8742C0.109649 19.6493 -0.0877967 19.1759 0.0372519 18.73C0.162301 18.2841 0.577127 17.9824 1.03985 18.0008C2.72666 18.0679 4.39647 17.7325 5.91484 17.033C4.41169 16.1055 3.32952 15.0043 2.57716 13.8163C1.57353 12.2317 1.19466 10.5529 1.12613 9.04545C1.05781 7.54233 1.29658 6.18894 1.54758 5.21841C1.67368 4.73082 1.80452 4.33355 1.90538 4.05458C1.95587 3.91493 1.99901 3.80446 2.03054 3.72663C2.04631 3.6877 2.0592 3.65689 2.06866 3.63464L2.08023 3.60771L2.08398 3.59915L2.08531 3.59611L2.08585 3.5949C2.08608 3.59439 2.08629 3.59391 3.0001 4.00005L2.08629 3.59391C2.2326 3.2647 2.54468 3.03964 2.90324 3.00475C3.2618 2.96985 3.61142 3.13052 3.81846 3.42534C4.734 4.72901 5.95775 5.78604 7.38071 6.50226C8.51256 7.07196 9.7425 7.41197 10.9998 7.50646C10.9924 6.3968 11.3221 5.3107 11.9457 4.3921C12.5762 3.4633 13.4768 2.75054 14.5256 2.35024ZM3.40475 6.04365C3.22106 6.84502 3.07437 7.86128 3.12407 8.95464C3.18055 10.1971 3.48918 11.5184 4.2668 12.7462C5.04039 13.9677 6.31614 15.1573 8.40624 16.0862C8.73805 16.2337 8.96384 16.5494 8.99614 16.9111C9.02844 17.2728 8.86216 17.6235 8.56173 17.8274C7.4508 18.5815 6.2343 19.1489 4.9602 19.5157C8.13037 20.3234 11.3071 19.9377 13.9053 18.5548C17.4366 16.6752 19.9996 12.9009 20.0001 7.50171C19.9993 7.28562 19.9785 7.07006 19.9379 6.8578C19.8752 6.52994 19.9803 6.19242 20.2179 5.95804C20.4407 5.73835 20.647 5.50421 20.8358 5.25755C20.6093 5.3411 20.3801 5.41783 20.1484 5.48758C19.7718 5.60099 19.3637 5.48308 19.1055 5.18628C18.6377 4.64837 18.016 4.26711 17.3244 4.09407C16.6328 3.92102 15.9048 3.96455 15.2388 4.21876C14.5727 4.47297 14.0009 4.9256 13.6005 5.51542C13.2001 6.10525 12.9905 6.80381 13 7.51664L13.0002 7.53005H13.0001V8.53005C13.0001 9.07223 12.568 9.51566 12.026 9.52971C10.1038 9.57955 8.19909 9.15324 6.48152 8.28872C5.33595 7.71212 4.29735 6.95253 3.40475 6.04365Z" fill="#0A0908"/>
</svg>
