<svg width="24" height="24" viewBox="0 0 24 24" fill="none" xmlns="http://www.w3.org/2000/svg">
<path fill-rule="evenodd" clip-rule="evenodd" d="M3 6C3.55228 6 4 6.44772 4 7V12H9C9.55228 12 10 12.4477 10 13C10 13.5523 9.55228 14 9 14H3C2.44772 14 2 13.5523 2 13V7C2 6.44772 2.44772 6 3 6Z" fill="black"/>
<path fill-rule="evenodd" clip-rule="evenodd" d="M11.999 7L12 7C14.6522 7 17.1957 8.05357 19.0711 9.92893C20.9464 11.8043 22 14.3478 22 17C22 17.5523 21.5523 18 21 18C20.4477 18 20 17.5523 20 17C20 14.8783 19.1572 12.8434 17.6569 11.3431C16.1567 9.84297 14.1221 9.00013 12.0005 9C10.0322 9.00213 8.13374 9.72983 6.66831 11.0439C6.66811 11.0441 6.66852 11.0437 6.66831 11.0439L3.66897 13.7433C3.25846 14.1128 2.62617 14.0795 2.25671 13.669C1.88726 13.2585 1.92053 12.6262 2.33104 12.2567L5.33232 9.55556C7.16438 7.9124 9.53801 7.00251 11.999 7Z" fill="black"/>
</svg>
