<svg width="24" height="24" viewBox="0 0 24 24" fill="none" xmlns="http://www.w3.org/2000/svg">
<path d="M13 7C13 5.34315 11.6569 4 10 4C8.34315 4 7 5.34315 7 7C7 8.65685 8.34315 10 10 10C11.6569 10 13 8.65685 13 7ZM15 7C15 9.76142 12.7614 12 10 12C7.23858 12 5 9.76142 5 7C5 4.23858 7.23858 2 10 2C12.7614 2 15 4.23858 15 7Z" fill="black"/>
<path d="M2 21V19C2 17.6739 2.52716 16.4025 3.46484 15.4648C4.40253 14.5272 5.67392 14 7 14H10.2998C10.8521 14 11.2998 14.4477 11.2998 15C11.2998 15.5523 10.8521 16 10.2998 16H7C6.20435 16 5.44152 16.3163 4.87891 16.8789C4.3163 17.4415 4 18.2044 4 19V21C4 21.5523 3.55228 22 3 22C2.44772 22 2 21.5523 2 21Z" fill="black"/>
<path d="M14 20H20V17H14V20ZM18 14C18 13.7348 17.8946 13.4805 17.707 13.293C17.5429 13.1288 17.3276 13.0276 17.0986 13.0049L17 13C16.7348 13 16.4805 13.1054 16.293 13.293C16.1054 13.4805 16 13.7348 16 14V15H18V14ZM20 15H20.1006C21.1494 15 22 15.8506 22 16.8994V20.1006C22 21.1494 21.1494 22 20.1006 22H13.8994C12.8506 22 12 21.1494 12 20.1006V16.8994C12 15.8506 12.8506 15 13.8994 15H14V14C14 13.2043 14.3163 12.4415 14.8789 11.8789C15.4415 11.3163 16.2043 11 17 11L17.2969 11.0146C17.9835 11.0829 18.6289 11.3867 19.1211 11.8789C19.6837 12.4415 20 13.2043 20 14V15Z" fill="black"/>
</svg>
